<?xml version="1.0" standalone="no"?>
<svg xmlns="http://www.w3.org/2000/svg" height="10000px" width="500px">
    <defs>
        <pattern id="doodad" width="41.57" height="36" viewBox="0 0 34.64101615137755 30" patternUnits="userSpaceOnUse"
                 patternTransform="rotate(132)">
            <rect width="100%" height="100%" fill="rgba(26, 12, 18,1)"/>
            <path d="M-20-20h200v200h-200M34.21 25.25L25.98 20.5L17.75 25.25L17.75 34.75L25.98 39.5L34.21 34.75zM16.89 25.25L8.66 20.5L0.43 25.25L0.43 34.75L8.66 39.5L16.89 34.75zM8.23 10.25L0 5.5L-8.23 10.25L-8.23 19.75L0 24.5L8.23 19.75zM16.89-4.75L8.66-9.5L0.43-4.75L0.43 4.75L8.66 9.5L16.89 4.75zM34.21-4.75L25.98-9.5L17.75-4.75L17.75 4.75L25.98 9.5L34.21 4.75zM42.87 10.25L34.64 5.5L26.41 10.25L26.41 19.75L34.64 24.5L42.87 19.75zM25.55 10.25L17.32 5.5L9.09 10.25L9.09 19.75L17.32 24.5L25.55 19.75z"
                  fill="rgba(47, 46, 64,1)"/>
            <path d="M-20-20h200v200h-200M25.21 25.25L16.98 20.5L8.75 25.25L8.75 34.75L16.98 39.5L25.21 34.75zM7.89 25.25L-0.34 20.5L-8.57 25.25L-8.57 34.75L-0.34 39.5L7.89 34.75zM-0.77 10.25L-9 5.5L-17.23 10.25L-17.23 19.75L-9 24.5L-0.77 19.75zM7.89-4.75L-0.34-9.5L-8.57-4.75L-8.57 4.75L-0.34 9.5L7.89 4.75zM25.21-4.75L16.98-9.5L8.75-4.75L8.75 4.75L16.98 9.5L25.21 4.75zM33.87 10.25L25.64 5.5L17.41 10.25L17.41 19.75L25.64 24.5L33.87 19.75zM42.53 25.25L34.3 20.5L26.07 25.25L26.07 34.75L34.3 39.5L42.53 34.75zM16.55 40.25L8.32 35.5L0.09 40.25L0.09 49.75L8.32 54.5L16.55 49.75zM-9.43 25.25L-17.66 20.5L-25.89 25.25L-25.89 34.75L-17.66 39.5L-9.43 34.75zM-9.43-4.75L-17.66-9.5L-25.89-4.75L-25.89 4.75L-17.66 9.5L-9.43 4.75zM16.55-19.75L8.32-24.5L0.09-19.75L0.09-10.25L8.32-5.5L16.55-10.25zM42.53-4.75L34.3-9.5L26.07-4.75L26.07 4.75L34.3 9.5L42.53 4.75zM33.87 40.25L25.64 35.5L17.41 40.25L17.41 49.75L25.64 54.5L33.87 49.75zM-0.77 40.25L-9 35.5L-17.23 40.25L-17.23 49.75L-9 54.5L-0.77 49.75zM-18.09 10.25L-26.32 5.5L-34.55 10.25L-34.55 19.75L-26.32 24.5L-18.09 19.75zM-0.77-19.75L-9-24.5L-17.23-19.75L-17.23-10.25L-9-5.5L-0.77-10.25zM33.87-19.75L25.64-24.5L17.41-19.75L17.41-10.25L25.64-5.5L33.87-10.25zM51.19 10.25L42.96 5.5L34.73 10.25L34.73 19.75L42.96 24.5L51.19 19.75zM16.55 10.25L8.32 5.5L0.09 10.25L0.09 19.75L8.32 24.5L16.55 19.75z"
                  fill="rgba(37, 181, 77,1)"/>
        </pattern>
    </defs>
    <rect fill="url(#doodad)" height="200%" width="200%"/>
</svg>
