<?xml version="1.0" encoding="UTF-8" standalone="no"?>
<svg
   height="566.933"
   width="566.933"
   xml:space="preserve"
   version="1.1"
   id="svg467"
   sodipodi:docname="logo.svg"
   inkscape:version="1.1.1 (3bf5ae0d25, 2021-09-20)"
   xmlns:inkscape="http://www.inkscape.org/namespaces/inkscape"
   xmlns:sodipodi="http://sodipodi.sourceforge.net/DTD/sodipodi-0.dtd"
   xmlns="http://www.w3.org/2000/svg"
   xmlns:svg="http://www.w3.org/2000/svg"><defs
     id="defs471" /><sodipodi:namedview
     id="namedview469"
     pagecolor="#ffffff"
     bordercolor="#666666"
     borderopacity="1.0"
     inkscape:pageshadow="2"
     inkscape:pageopacity="0.0"
     inkscape:pagecheckerboard="0"
     showgrid="false"
     inkscape:zoom="0.70710678"
     inkscape:cx="321.73358"
     inkscape:cy="348.60364"
     inkscape:window-width="1920"
     inkscape:window-height="1017"
     inkscape:window-x="-8"
     inkscape:window-y="-8"
     inkscape:window-maximized="1"
     inkscape:current-layer="svg467" /><path
     style="fill:#fa5fc1;fill-opacity:1;fill-rule:nonzero;stroke:none;stroke-width:0.133219"
     d="M 1,566.98873 H 567.91383 V 1.0178399 H 1 Z"
     id="path241" /><path
     style="fill:#066063;fill-opacity:1;fill-rule:nonzero;stroke:none;stroke-width:0.13333"
     d="m 121.93306,435.64068 c 0,7.36382 74.12361,13.333 165.56266,13.333 91.43638,0 165.5612,-5.96918 165.5612,-13.333 0,-7.36382 -74.12482,-13.333 -165.5612,-13.333 -91.43905,0 -165.56266,5.96918 -165.56266,13.333"
     id="path243" /><path
     style="fill:#ffffff;fill-opacity:1;fill-rule:nonzero;stroke:none;stroke-width:0.13333"
     d="m 441.93719,430.84747 c 1.23464,-1.2933 2.45328,-2.60127 3.65458,-3.92657 0.49332,-0.54532 0.45332,-1.38797 -0.092,-1.88262 -0.54532,-0.49466 -1.38796,-0.45466 -1.88262,0.0907 -1.18664,1.30797 -2.39061,2.59994 -3.60924,3.87724 -0.50799,0.53332 -0.48799,1.3773 0.044,1.88529 0.53332,0.50932 1.3773,0.48932 1.88662,-0.044 m 10.5824,-11.96237 a 211.02139,211.02139 0 0 0 6.51584,-8.37846 c 0.43732,-0.59332 0.31199,-1.42663 -0.28,-1.86395 -0.59332,-0.43732 -1.42796,-0.31199 -1.86395,0.27999 -2.07728,2.81326 -4.22256,5.57053 -6.43584,8.27179 -0.46665,0.57066 -0.38266,1.41064 0.18666,1.87729 0.57066,0.46666 1.41063,0.38266 1.87729,-0.18666 m 12.60235,-17.07557 c 1.95195,-2.9466 3.8319,-5.94519 5.63719,-8.99311 0.37466,-0.63465 0.16533,-1.45197 -0.46799,-1.82662 a 1.3333,1.3333 0 0 0 -1.82795,0.46798 204.22689,204.22689 0 0 1 -5.56386,8.87845 c -0.40666,0.61465 -0.23999,1.4413 0.37466,1.84795 0.61331,0.40666 1.44129,0.23866 1.84795,-0.37465 m 10.81173,-18.26088 a 208.58812,208.58812 0 0 0 4.69588,-9.5171 c 0.308,-0.66931 0.0173,-1.46129 -0.65065,-1.76929 -0.66931,-0.30932 -1.46129,-0.0187 -1.76929,0.65065 a 206.74656,206.74656 0 0 1 -4.63721,9.39577 c -0.34266,0.65198 -0.092,1.4573 0.55998,1.80129 0.65199,0.34132 1.4573,0.0907 1.80129,-0.56132 m 8.90111,-19.26219 c 1.31597,-3.27458 2.5506,-6.59183 3.70258,-9.94641 0.23866,-0.69599 -0.132,-1.4533 -0.82665,-1.6933 -0.69732,-0.23866 -1.45463,0.132 -1.69329,0.82798 -1.13864,3.31192 -2.35861,6.58517 -3.65724,9.81843 -0.27466,0.68264 0.0573,1.45863 0.74131,1.73329 0.68265,0.27466 1.45863,-0.0573 1.73329,-0.73999 m 6.89316,-20.06749 c 0.97331,-3.38925 1.86396,-6.81317 2.66927,-10.27041 0.16666,-0.71732 -0.27999,-1.43464 -0.99731,-1.6013 -0.71731,-0.16799 -1.43463,0.27866 -1.60129,0.99598 a 203.99757,203.99757 0 0 1 -2.63327,10.13974 c -0.204,0.70665 0.20533,1.4453 0.91198,1.6493 0.70798,0.20266 1.44663,-0.20667 1.65062,-0.91331 m 4.81055,-20.66482 c 0.62265,-3.46658 1.15997,-6.96249 1.60929,-10.48641 0.0933,-0.73198 -0.42399,-1.39863 -1.15464,-1.49196 -0.73064,-0.0933 -1.39729,0.42399 -1.49063,1.15464 -0.44398,3.47858 -0.97464,6.93049 -1.58929,10.35307 -0.13066,0.72399 0.35199,1.4173 1.07731,1.54797 0.72398,0.13066 1.4173,-0.352 1.54796,-1.07731 m 2.6866,-21.04214 c 0.26799,-3.50925 0.45065,-7.04116 0.54398,-10.59707 0.02,-0.73598 -0.56131,-1.34797 -1.2973,-1.36797 -0.73598,-0.0187 -1.34796,0.56132 -1.36796,1.29864 -0.092,3.51058 -0.272,6.99849 -0.53732,10.4624 -0.0573,0.73465 0.49199,1.37597 1.22663,1.43197 0.73465,0.056 1.37464,-0.49332 1.43197,-1.22797 m 0.55998,-21.21014 c -0.0827,-3.55591 -0.25466,-7.08915 -0.51332,-10.5984 -0.0547,-0.73465 -0.69465,-1.28663 -1.42796,-1.23197 -0.73465,0.0533 -1.28664,0.69332 -1.23197,1.42797 0.25599,3.46391 0.42532,6.95315 0.50799,10.46507 0.016,0.73598 0.62665,1.31863 1.36396,1.3013 0.73465,-0.0173 1.3173,-0.62799 1.3013,-1.36397 m -1.55862,-21.15947 c -0.43999,-3.52524 -0.96665,-7.02516 -1.57996,-10.4944 -0.128,-0.72532 -0.81998,-1.20931 -1.54397,-1.08131 -0.72531,0.128 -1.21063,0.81998 -1.0813,1.54529 0.60398,3.42525 1.1253,6.8785 1.55863,10.36108 0.0907,0.73065 0.75731,1.2493 1.48796,1.1573 0.73065,-0.0907 1.2493,-0.75731 1.1573,-1.48796 h 10e-4 m -3.69058,-20.89548 a 207.55881,207.55881 0 0 0 -2.6386,-10.27974 c -0.20133,-0.70932 -0.93864,-1.11997 -1.64662,-0.91864 -0.70932,0.20132 -1.11998,0.93864 -0.91865,1.64796 0.95198,3.34791 1.82129,6.73183 2.60527,10.14774 0.16533,0.71732 0.87998,1.16531 1.59729,1.00131 0.71732,-0.16533 1.16664,-0.88131 1.00131,-1.59863 m -5.79852,-20.41149 a 207.7948,207.7948 0 0 0 -3.68257,-9.97975 c -0.272,-0.68398 -1.04798,-1.0173 -1.73063,-0.74531 -0.68531,0.27332 -1.01864,1.04797 -0.74531,1.73195 a 205.84952,205.84952 0 0 1 3.63457,9.85176 c 0.236,0.69598 0.99331,1.06931 1.69063,0.83198 0.69731,-0.23733 1.07064,-0.99464 0.83331,-1.69063 m -7.8678,-19.75417 c -1.4813,-3.22659 -3.04126,-6.40917 -4.67855,-9.54509 -0.33999,-0.65332 -1.14531,-0.90665 -1.79862,-0.56532 -0.65199,0.34132 -0.90532,1.1453 -0.56399,1.79862 1.61596,3.09592 3.15592,6.23851 4.61722,9.42376 0.30666,0.66932 1.09864,0.96265 1.76795,0.65599 0.66799,-0.308 0.96265,-1.09864 0.65599,-1.76796 m -9.83309,-18.8382 a 209.98342,209.98342 0 0 0 -5.61986,-9.01577 c -0.40532,-0.61465 -1.23197,-0.78531 -1.84662,-0.37999 -0.61599,0.40532 -0.78531,1.23197 -0.37999,1.84795 1.92128,2.91593 3.7719,5.88386 5.54786,8.90111 0.37332,0.63466 1.19064,0.84532 1.82529,0.47199 0.63465,-0.37332 0.84531,-1.19063 0.47332,-1.82529 m -11.68737,-17.73293 a 211.24285,211.24285 0 0 0 -6.4985,-8.39845 c -0.46666,-0.57065 -1.3053,-0.65732 -1.87596,-0.19066 -0.57065,0.46532 -0.65598,1.30396 -0.19066,1.87595 2.20661,2.7066 4.34656,5.47186 6.41584,8.29046 0.43466,0.59332 1.2693,0.72131 1.86396,0.28666 0.59331,-0.43599 0.72131,-1.27064 0.28532,-1.86396 m -13.41166,-16.45692 c -2.37061,-2.6266 -4.80788,-5.1932 -7.30782,-7.69714 a 1.3346333,1.3346333 0 0 0 -1.88662,-0.001 c -0.52132,0.51999 -0.52132,1.3653 0,1.88529 2.46794,2.47193 4.87321,5.00654 7.21582,7.59981 0.49332,0.54665 1.33597,0.59065 1.88262,0.096 0.54532,-0.49332 0.58932,-1.33596 0.096,-1.88262 M 430.94414,131.0393 a 209.09317,209.09317 0 0 0 -8.04114,-6.92116 c -0.57065,-0.46665 -1.41063,-0.38132 -1.87728,0.188 -0.46533,0.57065 -0.38133,1.41063 0.18933,1.87595 a 209.40276,209.40276 0 0 1 7.9398,6.83316 c 0.54532,0.49466 1.3893,0.45199 1.88395,-0.0933 0.49332,-0.54665 0.45199,-1.3893 -0.0933,-1.88395 l -10e-4,10e-4 m -16.42093,-13.42633 a 210.98246,210.98246 0 0 0 -8.69445,-6.07185 c -0.61331,-0.40665 -1.44129,-0.23732 -1.84662,0.37733 -0.40665,0.61331 -0.23866,1.43996 0.37599,1.84662 2.91326,1.92795 5.77586,3.92657 8.58379,5.99585 0.59198,0.43599 1.42663,0.30932 1.86395,-0.28266 0.43732,-0.59332 0.31066,-1.42797 -0.28266,-1.86529 M 396.84135,105.9183 a 207.90094,207.90094 0 0 0 -9.25844,-5.15987 c -0.65198,-0.34133 -1.45729,-0.0907 -1.79995,0.56131 a 1.3330333,1.3330333 0 0 0 0.56265,1.79996 c 3.09326,1.62263 6.14118,3.32125 9.13977,5.09321 0.63332,0.37465 1.45063,0.16532 1.82529,-0.46933 0.37466,-0.63331 0.164,-1.45063 -0.46932,-1.82528 m -18.7622,-9.841085 c -3.19992,-1.47597 -6.44384,-2.87326 -9.72776,-4.19056 -0.68398,-0.27466 -1.46129,0.0573 -1.73462,0.74131 -0.27333,0.68265 0.0587,1.45996 0.74131,1.73329 3.24259,1.29997 6.44384,2.67993 9.60376,4.13723 0.66799,0.30799 1.45997,0.016 1.76796,-0.65198 0.30933,-0.66932 0.0173,-1.45997 -0.65065,-1.76929 m -19.67684,-7.88781 c -3.33725,-1.14397 -6.71317,-2.20661 -10.12508,-3.18392 -0.70798,-0.20266 -1.44663,0.20667 -1.64796,0.91465 a 1.3311667,1.3311667 0 0 0 0.91464,1.64796 c 3.36659,0.96664 6.6985,2.01461 9.99309,3.14392 a 1.3323667,1.3323667 0 0 0 1.69329,-0.82931 c 0.23999,-0.69599 -0.132,-1.45463 -0.82798,-1.6933 m -20.39816,-5.84652 c -3.43325,-0.79731 -6.89849,-1.51062 -10.39574,-2.13594 a 1.3329,1.3329 0 0 0 -1.54663,1.07864 c -0.12933,0.72398 0.352,1.4173 1.07731,1.54663 3.45058,0.61731 6.87316,1.3213 10.26241,2.10794 0.71598,0.16667 1.4333,-0.27999 1.59996,-0.99731 0.16533,-0.71731 -0.27999,-1.43463 -0.99731,-1.59996 m -20.88614,-3.7399 c -3.49192,-0.44399 -7.01183,-0.80132 -10.55707,-1.07064 a 1.3325,1.3325 0 0 0 -1.43063,1.22797 c -0.056,0.73465 0.49332,1.37463 1.22797,1.43196 3.50124,0.26533 6.97582,0.61865 10.42374,1.05598 0.73064,0.092 1.39863,-0.42399 1.49063,-1.15464 0.092,-0.73065 -0.42399,-1.3973 -1.15464,-1.49063 m -21.15547,-1.6093 a 211.12006,211.12006 0 0 0 -10.61307,-0.008 c -0.73732,0.016 -1.31997,0.62799 -1.3013,1.36397 0.0173,0.73598 0.62798,1.31863 1.3653,1.3013 1.68129,-0.04 3.36791,-0.0613 5.05987,-0.0613 1.81196,0 3.61858,0.024 5.41986,0.0707 0.73599,0.0187 1.3493,-0.56265 1.36797,-1.29863 0.0187,-0.73598 -0.56265,-1.3493 -1.29863,-1.36797 m -21.21317,0.51062 c -3.54391,0.26399 -7.06515,0.61598 -10.5584,1.05331 -0.73198,0.092 -1.2493,0.75864 -1.1573,1.48929 0.0907,0.72932 0.75731,1.24797 1.48929,1.15597 3.44925,-0.43199 6.92383,-0.77864 10.42374,-1.03864 0.73465,-0.0547 1.2853,-0.69331 1.23197,-1.42796 -0.0547,-0.73465 -0.69465,-1.2853 -1.42796,-1.23064 l -0.001,-0.001 m -21.0528,2.6386 c -3.49725,0.61999 -6.96383,1.32664 -10.39841,2.11728 -0.71865,0.16533 -1.1653,0.87998 -1.00131,1.59863 0.16533,0.71598 0.87998,1.16397 1.59863,0.99997 3.39058,-0.78131 6.81449,-1.47863 10.26641,-2.09061 0.72398,-0.128 1.20797,-0.81998 1.07997,-1.54529 -0.128,-0.72532 -0.81998,-1.20797 -1.54529,-1.07998 m -20.67815,4.76255 a 207.55348,207.55348 0 0 0 -10.13042,3.16659 c -0.69731,0.23599 -1.0693,0.99331 -0.83198,1.69196 0.23733,0.69598 0.99465,1.06797 1.69196,0.83197 a 205.63619,205.63619 0 0 1 10.00075,-3.12662 c 0.70798,-0.20133 1.11863,-0.93864 0.91731,-1.64662 a 1.3338333,1.3338333 0 0 0 -1.64796,-0.91731 m -20.1075,6.85449 c -3.29858,1.31597 -6.55717,2.7146 -9.77176,4.1919 -0.66931,0.30666 -0.96131,1.09864 -0.65331,1.76795 0.30666,0.66932 1.09864,0.96131 1.76795,0.65466 3.17192,-1.45864 6.38918,-2.8386 9.64643,-4.13724 0.68398,-0.27332 1.01597,-1.05064 0.74398,-1.73329 -0.27333,-0.68398 -1.04931,-1.0173 -1.73329,-0.74398 m -19.31418,8.875775 a 208.94891,208.94891 0 0 0 -9.28777,5.16121 c -0.63599,0.37332 -0.84665,1.19063 -0.47199,1.82528 0.37332,0.63465 1.19064,0.84532 1.82529,0.47199 3.00926,-1.77329 6.06651,-3.47324 9.17043,-5.09587 0.65199,-0.34133 0.90532,-1.14664 0.56399,-1.79996 -0.34132,-0.65198 -1.14664,-0.90397 -1.79995,-0.56265 m -18.30088,10.7864 a 209.10144,209.10144 0 0 0 -8.71445,6.07318 c -0.59332,0.43599 -0.71998,1.2693 -0.28399,1.86395 0.43599,0.59199 1.27063,0.71999 1.86395,0.284 2.8146,-2.06928 5.68253,-4.0679 8.60379,-5.99585 0.61331,-0.40533 0.78264,-1.23197 0.37732,-1.84662 -0.40532,-0.61466 -1.23197,-0.78398 -1.84662,-0.37866 m -17.10891,12.57702 a 210.40407,210.40407 0 0 0 -8.05313,6.91849 c -0.54665,0.49332 -0.58932,1.33597 -0.0947,1.88262 0.49332,0.54532 1.3373,0.58799 1.88262,0.0947 2.59193,-2.34261 5.24387,-4.61989 7.9518,-6.8305 a 1.3319667,1.3319667 0 0 0 0.18933,-1.87595 c -0.46532,-0.56932 -1.3053,-0.65465 -1.87596,-0.18933 m -15.74614,14.23031 a 211.53071,211.53071 0 0 0 -7.31328,7.68914 c -0.49425,0.54665 -0.45159,1.39063 0.0952,1.88395 0.54585,0.49466 1.38903,0.45199 1.88328,-0.0947 a 208.52132,208.52132 0 0 1 7.22076,-7.59315 c 0.52025,-0.51998 0.52025,-1.36396 0,-1.88528 -0.52092,-0.51999 -1.36517,-0.51999 -1.88596,0 m -14.22831,15.73694 a 210.26808,210.26808 0 0 0 -6.49983,8.38246 c -0.43639,0.59331 -0.30933,1.42796 0.28386,1.86395 0.59318,0.43599 1.42809,0.30932 1.86462,-0.28399 a 207.24135,207.24135 0 0 1 6.4169,-8.2758 c 0.46572,-0.57065 0.38079,-1.41063 -0.18946,-1.87728 -0.57092,-0.46533 -1.4109,-0.37999 -1.87609,0.19066 m -12.56635,17.0809 a 209.04517,209.04517 0 0 0 -5.61759,8.99045 c -0.37439,0.63465 -0.16346,1.45196 0.47092,1.82662 0.63385,0.37332 1.45143,0.16266 1.82595,-0.47066 a 205.90872,205.90872 0 0 1 5.54627,-8.87711 c 0.40572,-0.61465 0.23639,-1.4413 -0.37759,-1.84795 -0.61466,-0.40533 -1.4417,-0.236 -1.84796,0.37865 m -10.77102,18.25289 a 207.52001,207.52001 0 0 0 -4.67535,9.50776 c -0.308397,0.66799 -0.0156,1.45997 0.65305,1.76796 a 1.3330333,1.3330333 0 0 0 1.76875,-0.65332 206.47484,206.47484 0 0 1 4.61602,-9.38643 c 0.34106,-0.65198 0.0891,-1.4573 -0.56305,-1.79862 -0.65198,-0.34266 -1.4577,-0.0907 -1.79942,0.56265 m -8.860183,19.23685 a 208.53172,208.53172 0 0 0 -3.691108,9.95176 c -0.237994,0.69598 0.13333,1.45463 0.830779,1.69329 0.696383,0.23732 1.45463,-0.13467 1.692625,-0.83065 1.133305,-3.31325 2.348341,-6.58783 3.643642,-9.82242 0.27346,-0.68398 -0.0588,-1.45996 -0.742648,-1.73329 -0.68385,-0.27466 -1.459831,0.0573 -1.73329,0.74131 m -6.868629,20.07817 a 207.15389,207.15389 0 0 0 -2.6566,10.27574 c -0.166262,0.71598 0.28066,1.4333 0.997842,1.59863 0.717182,0.16666 1.433297,-0.27999 1.59996,-0.99731 a 204.57222,204.57222 0 0 1 2.622334,-10.14375 c 0.202129,-0.70798 -0.207328,-1.44663 -0.915043,-1.64929 -0.708383,-0.20133 -1.446364,0.208 -1.648493,0.91598 m -4.785747,20.67148 a 209.93235,209.93235 0 0 0 -1.597426,10.49174 c -0.09213,0.73065 0.425056,1.3973 1.155704,1.4893 0.730248,0.092 1.396898,-0.42533 1.489563,-1.15598 0.440122,-3.47857 0.966642,-6.93182 1.57756,-10.35574 0.129197,-0.72531 -0.353591,-1.41729 -1.078106,-1.54662 -0.724915,-0.13067 -1.417698,0.35199 -1.546761,1.0773 h -5.34e-4 m -2.6614,21.05014 c -0.264526,3.50925 -0.442655,7.04249 -0.532253,10.5984 -0.01827,0.73599 0.562919,1.34797 1.299434,1.36664 0.735848,0.0187 1.347833,-0.56399 1.366633,-1.29997 0.088,-3.51058 0.263993,-6.99983 0.52492,-10.46507 0.0552,-0.73465 -0.495321,-1.37463 -1.229569,-1.4293 -0.733849,-0.056 -1.373966,0.49465 -1.429165,1.2293 m -0.53492,21.21281 c 0.08747,3.55857 0.264127,7.09315 0.527054,10.60506 0.05466,0.73465 0.694782,1.2853 1.429697,1.23064 0.734382,-0.0547 1.284368,-0.69465 1.229703,-1.4293 -0.259994,-3.46791 -0.433856,-6.95849 -0.520387,-10.47174 -0.01813,-0.73598 -0.629584,-1.31863 -1.366099,-1.29996 -0.735848,0.0173 -1.318234,0.62931 -1.299968,1.3653 m 1.587427,21.17147 c 0.444256,3.52657 0.976109,7.02782 1.593827,10.4984 0.129064,0.72398 0.821313,1.20797 1.546228,1.07864 0.724515,-0.12933 1.207837,-0.82131 1.079173,-1.54663 -0.609851,-3.42658 -1.135438,-6.88116 -1.573427,-10.36374 -0.09213,-0.73065 -0.759315,-1.2493 -1.489563,-1.15597 -0.730648,0.0907 -1.248369,0.75865 -1.156238,1.4893 m 3.719774,20.90214 c 0.79998,3.45991 1.685291,6.88916 2.654067,10.28108 0.202662,0.70798 0.940643,1.11864 1.648892,0.91597 0.707849,-0.20132 1.117705,-0.93997 0.915577,-1.64796 a 204.70022,204.70022 0 0 1 -2.620201,-10.14944 c -0.166129,-0.71865 -0.881711,-1.16531 -1.598893,-0.99998 a 1.3337,1.3337 0 0 0 -0.999442,1.59996 m 5.830521,20.41416 a 207.03082,207.03082 0 0 0 3.689508,9.95708 c 0.273459,0.68265 1.048907,1.01598 1.732756,0.74265 0.68385,-0.27333 1.016642,-1.04931 0.743315,-1.73329 a 204.80421,204.80421 0 0 1 -3.642176,-9.82909 1.3319667,1.3319667 0 0 0 -1.692624,-0.82931 c -0.697449,0.23733 -1.068773,0.99464 -0.830246,1.69196 h -5.33e-4 m 7.882607,19.7115 a 208.13093,208.13093 0 0 0 4.68375,9.5291 c 0.34172,0.65198 1.14744,0.90398 1.79942,0.56265 0.65212,-0.34266 0.90424,-1.14797 0.56252,-1.79995 a 206.6355,206.6355 0 0 1 -4.62389,-9.40643 c -0.30772,-0.66932 -1.09997,-0.96265 -1.76862,-0.65332 a 1.3315667,1.3315667 0 0 0 -0.65358,1.76795 h 4e-4 m 9.84615,18.8062 a 209.82942,209.82942 0 0 0 5.62586,9.00378 c 0.40572,0.61465 1.2333,0.78398 1.84795,0.37732 0.61399,-0.40666 0.78332,-1.2333 0.3776,-1.84795 a 206.20591,206.20591 0 0 1 -5.55453,-8.88778 c -0.37453,-0.63465 -1.19224,-0.84531 -1.82662,-0.47066 -0.63425,0.37333 -0.84478,1.19064 -0.47026,1.82529 m 11.70024,17.71022 a 210.50447,210.50447 0 0 0 6.50611,8.38913 c 0.46558,0.57065 1.3057,0.65465 1.87648,0.18933 0.57026,-0.46533 0.65465,-1.3053 0.1896,-1.87596 -2.20981,-2.70526 -4.35203,-5.46653 -6.42437,-8.28246 -0.43639,-0.59331 -1.27131,-0.71998 -1.86396,-0.28399 -0.59318,0.43599 -0.72025,1.27197 -0.28386,1.86395 m 13.62313,16.65559 c 1.20104,1.3253 2.41967,2.63327 3.65404,3.92657 0.50785,0.53198 1.3521,0.55332 1.88489,0.044 0.53278,-0.50799 0.55252,-1.35197 0.0448,-1.88396 a 212.69802,212.69802 0 0 1 -3.60938,-3.87857 c -0.49479,-0.54532 -1.33743,-0.58665 -1.88275,-0.0907 -0.54572,0.49332 -0.58639,1.3373 -0.0916,1.88262 m 277.63452,-17.04358 c 0,3.50925 -2.84526,6.35185 -6.35184,6.35185 H 161.00822 c -3.50792,0 -6.35318,-2.8426 -6.35318,-6.35185 V 264.47563 c 0,-3.50658 2.84526,-6.35185 6.35318,-6.35185 h 245.62852 c 3.50658,0 6.35184,2.84527 6.35184,6.35185 v 145.40169"
     id="path245" /><path
     style="fill:#4b2c4e;fill-opacity:1;fill-rule:nonzero;stroke:none;stroke-width:0.13333"
     d="m 412.98858,409.87732 h -1.05864 c -10e-4,1.4653 -0.59198,2.78127 -1.55062,3.74258 -0.96265,0.95997 -2.27861,1.55062 -3.74258,1.55062 H 161.00822 c -1.4653,0 -2.78127,-0.59065 -3.74391,-1.55062 -0.95864,-0.96131 -1.54929,-2.27728 -1.55063,-3.74258 V 264.47563 c 10e-4,-1.46397 0.59199,-2.78127 1.55063,-3.74258 0.96264,-0.95997 2.27861,-1.54929 3.74391,-1.55063 h 245.62852 c 1.46397,0.001 2.77993,0.59066 3.74258,1.55063 0.95864,0.96131 1.54929,2.27861 1.55062,3.74258 v 145.40169 h 2.11728 V 264.47563 c -10e-4,-4.09324 -3.31858,-7.40915 -7.41048,-7.41049 H 161.00822 c -4.09323,0.001 -7.41048,3.31725 -7.41182,7.41049 v 145.40169 c 0.001,4.09457 3.31859,7.41049 7.41182,7.41049 h 245.62852 c 4.0919,0 7.41048,-3.31726 7.41048,-7.41049 h -1.05864"
     id="path247" /><path
     style="fill:#f0b6db;fill-opacity:1;fill-rule:nonzero;stroke:none;stroke-width:0.13333"
     d="M 162.77351,406.34808 H 404.87145 V 274.35818 H 162.77351 Z"
     id="path249" /><path
     style="fill:#4b2c4e;fill-opacity:1;fill-rule:nonzero;stroke:none;stroke-width:0.13333"
     d="m 404.87145,406.34808 v -1.05864 H 163.83081 V 275.41669 h 239.98067 v 130.93139 h 1.05997 v -1.05864 1.05864 h 1.05864 V 274.35805 c 0,-0.27866 -0.11333,-0.55066 -0.31065,-0.74799 a 1.0645067,1.0645067 0 0 0 -0.74799,-0.31065 H 162.77351 c -0.28,0 -0.55199,0.11333 -0.74932,0.31065 a 1.0621068,1.0621068 0 0 0 -0.31066,0.74799 v 131.99003 c 0,0.27866 0.11333,0.55199 0.31066,0.74931 a 1.0697066,1.0697066 0 0 0 0.74932,0.30933 h 242.09794 c 0.28266,0 0.54799,-0.10933 0.74799,-0.31066 a 1.0487738,1.0487738 0 0 0 0.31065,-0.74798 h -1.05864"
     id="path251" /><path
     style="fill:#f0b6db;fill-opacity:1;fill-rule:nonzero;stroke:none;stroke-width:0.13333"
     d="m 375.73618,374.60087 c -1.61062,0 -3.22525,-0.02 -4.83588,-0.0573 v -75.27678 c 2.77193,0.0187 5.76386,0.14933 8.97445,0.42799 9.26243,0.80264 16.9809,4.20522 22.70476,7.74913 v 65.38637 c -8.87978,1.17997 -17.85689,1.77062 -26.84333,1.77062 m -84.79254,-83.38191 c -0.78665,-1.09064 -1.65063,-2.12128 -2.58261,-3.09859 h 5.16387 c -0.93197,0.97731 -1.79595,2.00795 -2.58126,3.09859"
     id="path253" /><path
     style="fill:#088286;fill-opacity:1;fill-rule:nonzero;stroke:none;stroke-width:0.13333"
     d="M 403.81148,405.28944 H 163.83081 V 288.12037 h 3.53058 v 113.2865 h 113.04784 c 0.0453,0.068 0.0973,0.132 0.156,0.19066 a 1.2613018,1.2613018 0 0 0 0.88664,0.36666 h 87.56848 a 1.2499687,1.2499687 0 0 0 1.04264,-0.55732 h 33.74849 v 3.88257"
     id="path255" /><path
     style="fill:#2a182b;fill-opacity:1;fill-rule:nonzero;stroke:none;stroke-width:0.13333"
     d="M 404.87145,406.34808 H 162.77351 V 288.12037 h 1.0573 v 117.16907 h 239.98067 v -3.88257 h 1.05997 v 4.94121 m 0,0 v -1.05864 1.05864"
     id="path257" /><path
     style="fill:#ffffff;fill-opacity:1;fill-rule:nonzero;stroke:none;stroke-width:0.13333"
     d="m 139.10916,416.22917 h 299.90811 c 0,0 0,19.41151 -16.58626,19.41151 H 157.10698 c -14.29324,0 -17.99782,-19.41151 -17.99782,-19.41151"
     id="path259" /><path
     style="fill:#4b2c4e;fill-opacity:1;fill-rule:nonzero;stroke:none;stroke-width:0.13333"
     d="m 139.10916,416.22917 v 1.05864 h 299.90811 v -1.05864 h -1.05998 v 0.0413 c -10e-4,0.49065 -0.14133,5.21987 -2.17861,9.68109 -1.01597,2.23328 -2.48927,4.38789 -4.61455,5.97718 -2.12928,1.58663 -4.91588,2.64794 -8.73312,2.65327 H 157.10698 c -3.32925,-0.005 -5.98652,-1.11331 -8.19579,-2.81326 -3.30685,-2.54394 -5.53653,-6.48251 -6.89743,-9.80109 a 37.232402,37.232402 0 0 1 -1.44837,-4.2279 30.187512,30.187512 0 0 1 -0.32132,-1.26663 c -0.0333,-0.148 -0.0579,-0.26133 -0.074,-0.33599 l -0.0213,-0.10667 -1.03958,0.19867 v 1.05864 -1.05864 l -1.0401,0.19866 c 0.0145,0.0627 0.95051,4.99854 3.75457,10.02375 1.40516,2.5106 3.28325,5.0532 5.79426,6.99449 2.50527,1.93995 5.67185,3.25725 9.48909,3.25325 h 265.32403 c 4.35056,0.005 7.72914,-1.29197 10.23975,-3.25725 3.7719,-2.95326 5.58653,-7.27315 6.49584,-10.80773 0.90797,-3.54258 0.90797,-6.34784 0.90931,-6.40517 0,-0.27866 -0.11333,-0.55066 -0.31066,-0.74799 a 1.0645067,1.0645067 0 0 0 -0.74798,-0.31066 H 139.10916 a 1.06504,1.06504 0 0 0 -0.81611,0.384 1.0639734,1.0639734 0 0 0 -0.22399,0.87331 l 1.0401,-0.19866"
     id="path261" /><path
     style="fill:#f4f4f4;fill-opacity:1;fill-rule:nonzero;stroke:none;stroke-width:0.13333"
     d="M 162.77351,287.06173 H 404.87145 V 274.35845 H 162.77351 Z"
     id="path263" /><path
     style="fill:#4b2c4e;fill-opacity:1;fill-rule:nonzero;stroke:none;stroke-width:0.13333"
     d="m 404.87145,287.06173 v -1.05864 h -241.0393 v -10.5864 h 239.97933 v 11.64504 h 1.05997 v -1.05864 1.05864 h 1.05864 v -12.70368 c 0,-0.27866 -0.11333,-0.55066 -0.31065,-0.74799 a 1.0645067,1.0645067 0 0 0 -0.74799,-0.31065 H 162.77351 c -0.28,0 -0.55199,0.11333 -0.74932,0.31065 a 1.0621068,1.0621068 0 0 0 -0.31066,0.74799 v 12.70368 c 0,0.27866 0.11333,0.55198 0.31066,0.74931 a 1.0639734,1.0639734 0 0 0 0.74932,0.30933 h 242.09794 c 0.28266,0 0.54799,-0.10933 0.74799,-0.30933 0.19999,-0.19999 0.31065,-0.46665 0.31065,-0.74931 h -1.05864"
     id="path265" /><path
     style="fill:#f4f4f4;fill-opacity:1;fill-rule:nonzero;stroke:none;stroke-width:0.13333"
     d="m 377.69613,281.23921 c 0,2.04661 -1.65862,3.70657 -3.7039,3.70657 -2.04795,0 -3.70658,-1.65996 -3.70658,-3.70657 0,-2.04662 1.65863,-3.70524 3.70658,-3.70524 2.04528,0 3.7039,1.65862 3.7039,3.70524"
     id="path267" /><path
     style="fill:#2e1449;fill-opacity:1;fill-rule:nonzero;stroke:none;stroke-width:0.13333"
     d="m 377.69613,281.23921 h -1.05864 c -0.003,1.46129 -1.1853,2.64393 -2.64526,2.6466 -1.46397,-0.003 -2.64527,-1.18531 -2.64794,-2.6466 0.003,-1.4613 1.18397,-2.64394 2.64794,-2.6466 1.45996,0.003 2.6426,1.1853 2.64526,2.6466 h 2.11728 c 0,-2.63194 -2.13194,-4.76388 -4.76254,-4.76388 -2.63327,0 -4.76522,2.13194 -4.76655,4.76388 10e-4,2.63193 2.13328,4.76388 4.76655,4.76388 2.6306,0 4.76254,-2.13195 4.76254,-4.76388 h -1.05864"
     id="path269" /><path
     style="fill:#f4f4f4;fill-opacity:1;fill-rule:nonzero;stroke:none;stroke-width:0.13333"
     d="m 388.45986,281.23921 c 0,2.04661 -1.65862,3.70657 -3.70524,3.70657 -2.04528,0 -3.7039,-1.65996 -3.7039,-3.70657 0,-2.04662 1.65862,-3.70524 3.7039,-3.70524 2.04662,0 3.70524,1.65862 3.70524,3.70524"
     id="path271" /><path
     style="fill:#2e1449;fill-opacity:1;fill-rule:nonzero;stroke:none;stroke-width:0.13333"
     d="m 388.45986,281.23921 h -1.05864 c -0.003,1.46129 -1.1853,2.64393 -2.6466,2.6466 -1.46129,-0.003 -2.64393,-1.18531 -2.6466,-2.6466 0.003,-1.4613 1.18531,-2.64394 2.6466,-2.6466 1.4613,0.003 2.64394,1.1853 2.6466,2.6466 h 2.11728 c 0,-2.63194 -2.13328,-4.76388 -4.76388,-4.76388 -2.6306,0 -4.76254,2.13194 -4.76388,4.76388 10e-4,2.63193 2.13328,4.76388 4.76388,4.76388 2.6306,0 4.76388,-2.13195 4.76388,-4.76388 h -1.05864"
     id="path273" /><path
     style="fill:#f4f4f4;fill-opacity:1;fill-rule:nonzero;stroke:none;stroke-width:0.13333"
     d="m 399.22493,281.23921 c 0,2.04661 -1.65863,3.70657 -3.70524,3.70657 -2.04662,0 -3.70524,-1.65996 -3.70524,-3.70657 0,-2.04662 1.65862,-3.70524 3.70524,-3.70524 2.04661,0 3.70524,1.65862 3.70524,3.70524"
     id="path275" /><path
     style="fill:#2e1449;fill-opacity:1;fill-rule:nonzero;stroke:none;stroke-width:0.13333"
     d="m 399.22493,281.23921 h -1.05864 c -0.003,1.46129 -1.18531,2.64393 -2.6466,2.6466 -1.46263,-0.003 -2.64394,-1.18531 -2.6466,-2.6466 0.003,-1.4613 1.18397,-2.64394 2.6466,-2.6466 1.46129,0.003 2.64393,1.1853 2.6466,2.6466 h 2.11728 c 0,-2.63194 -2.13195,-4.76388 -4.76388,-4.76388 -2.63194,0 -4.76388,2.13194 -4.76522,4.76388 10e-4,2.63193 2.13328,4.76388 4.76522,4.76388 2.63193,0 4.76388,-2.13195 4.76388,-4.76388 h -1.05864"
     id="path277" /><path
     style="fill:#f4f4f4;fill-opacity:1;fill-rule:nonzero;stroke:none;stroke-width:0.13333"
     d="m 304.2913,280.70989 c 0,2.04661 -1.65862,3.70657 -3.70524,3.70657 H 178.47711 c -2.04661,0 -3.70524,-1.65996 -3.70524,-3.70657 0,-2.04529 1.65863,-3.70658 3.70524,-3.70658 h 122.10895 c 2.04662,0 3.70524,1.66129 3.70524,3.70658"
     id="path279" /><path
     style="fill:#4b2c4e;fill-opacity:1;fill-rule:nonzero;stroke:none;stroke-width:0.13333"
     d="m 304.2913,280.70989 h -1.05997 c -0.003,1.46129 -1.18531,2.64526 -2.64527,2.64793 H 178.47711 c -1.46129,-0.003 -2.64393,-1.18664 -2.6466,-2.64793 0.003,-1.4613 1.18531,-2.64527 2.6466,-2.64794 h 122.10895 c 1.45996,0.003 2.6426,1.18664 2.64527,2.64794 h 2.11861 c -10e-4,-2.6306 -2.13194,-4.76388 -4.76388,-4.76522 H 178.47711 c -2.63193,0.001 -4.76388,2.13462 -4.76388,4.76522 0,2.6306 2.13195,4.76521 4.76388,4.76521 h 122.10895 c 2.63194,-10e-4 4.76255,-2.13461 4.76388,-4.76521 h -1.05864"
     id="path281" /><path
     style="fill:#f0b6db;fill-opacity:1;fill-rule:nonzero;stroke:none;stroke-width:0.13333"
     d="m 294.22489,266.94623 c 0,2.84926 -2.31195,5.1612 -5.16254,5.1612 -2.8506,0 -5.16121,-2.31194 -5.16121,-5.1612 0,-2.85059 2.31061,-5.16254 5.16121,-5.16254 2.85059,0 5.16254,2.31195 5.16254,5.16254"
     id="path283" /><path
     style="fill:#4b2c4e;fill-opacity:1;fill-rule:nonzero;stroke:none;stroke-width:0.13333"
     d="m 294.22489,266.94623 h -1.05998 c -0.003,2.26394 -1.83728,4.09856 -4.10256,4.10256 -2.26528,-0.004 -4.09857,-1.83862 -4.10257,-4.10256 0.004,-2.26528 1.83729,-4.09856 4.10257,-4.1039 2.26528,0.005 4.0999,1.83862 4.10256,4.1039 h 2.11862 c -10e-4,-3.43591 -2.78527,-6.21984 -6.22118,-6.22118 -3.43592,10e-4 -6.21985,2.78527 -6.21985,6.22118 0,3.43458 2.78393,6.21985 6.21985,6.21985 3.43591,-0.001 6.21984,-2.78527 6.22118,-6.21985 h -1.05864"
     id="path285" /><path
     style="fill:#b6b66e;fill-opacity:1;fill-rule:nonzero;stroke:none;stroke-width:0.13333"
     d="m 313.10841,425.93559 h -48.09213 v -9.70642 h 48.09213 v 9.70642"
     id="path287" /><path
     style="fill:#4b2c4e;fill-opacity:1;fill-rule:nonzero;stroke:none;stroke-width:0.13333"
     d="m 313.10841,425.93559 v -1.05997 h -47.03482 v -7.58781 h 45.97485 l 10e-4,8.64778 h 1.05864 v -1.05997 1.05997 h 1.05864 v -9.70642 c 0,-0.27866 -0.11333,-0.55066 -0.30932,-0.74799 a 1.0677066,1.0677066 0 0 0 -0.74932,-0.31066 h -48.09213 c -0.27999,0 -0.55198,0.11334 -0.74931,0.31066 a 1.0645067,1.0645067 0 0 0 -0.31066,0.74799 v 9.70642 c 0,0.27866 0.11333,0.55065 0.31066,0.74798 a 1.0653067,1.0653067 0 0 0 0.74931,0.31066 h 48.09213 c 0.28266,0 0.54799,-0.11066 0.74799,-0.31066 0.19999,-0.19999 0.31065,-0.46532 0.31065,-0.74798 h -1.05864"
     id="path289" /><path
     style="fill:#ef6a53;fill-opacity:1;fill-rule:nonzero;stroke:none;stroke-width:0.13333"
     d="M 281.45187,400.71089 H 208.47903 V 293.4749 h 72.97284 v 107.23599"
     id="path291" /><path
     style="fill:#4b2c4e;fill-opacity:1;fill-rule:nonzero;stroke:none;stroke-width:0.13333"
     d="m 281.45187,400.71089 v -1.25464 h -71.7182 V 294.7282 h 70.46357 v 105.98269 h 1.25463 v -1.25464 1.25464 h 1.25464 V 293.4749 c 0,-0.33066 -0.13333,-0.65332 -0.36799,-0.88798 a 1.2613018,1.2613018 0 0 0 -0.88665,-0.36665 h -72.97284 c -0.32932,0 -0.65332,0.13333 -0.88664,0.36665 a 1.2655684,1.2655684 0 0 0 -0.36799,0.88798 v 107.23599 c 0,0.32932 0.13466,0.65331 0.36799,0.88664 a 1.2635684,1.2635684 0 0 0 0.88664,0.36666 h 72.97284 c 0.33466,0 0.65065,-0.13066 0.88665,-0.36666 a 1.2457022,1.2457022 0 0 0 0.36799,-0.88664 h -1.25464"
     id="path293" /><path
     style="fill:#ef6a53;fill-opacity:1;fill-rule:nonzero;stroke:none;stroke-width:0.13333"
     d="m 296.04751,400.71089 h 72.97324 V 293.47503 h -72.97324 z"
     id="path295" /><path
     style="fill:#4b2c4e;fill-opacity:1;fill-rule:nonzero;stroke:none;stroke-width:0.13333"
     d="m 369.02035,400.71089 v -1.25464 H 297.30081 V 294.7282 h 70.46357 l 10e-4,105.98269 h 1.25464 v -1.25464 1.25464 h 1.2533 V 293.4749 c 0,-0.33066 -0.13333,-0.65465 -0.36666,-0.88798 a 1.265835,1.265835 0 0 0 -0.88664,-0.36665 h -72.97284 c -0.33066,0 -0.65465,0.13333 -0.88798,0.36665 a 1.2642351,1.2642351 0 0 0 -0.36666,0.88798 v 107.23599 c 0,0.32932 0.13333,0.65331 0.36666,0.88664 a 1.2642351,1.2642351 0 0 0 0.88798,0.36666 h 72.97284 c 0.33466,0 0.64932,-0.13066 0.88664,-0.36666 a 1.2499687,1.2499687 0 0 0 0.36666,-0.88664 h -1.2533"
     id="path297" /><path
     style="fill:#ad1a1c;fill-opacity:1;fill-rule:nonzero;stroke:none;stroke-width:0.13333"
     d="m 281.45187,400.71089 h 14.5955 V 293.47503 h -14.5955 z"
     id="path299" /><path
     style="fill:#4b2c4e;fill-opacity:1;fill-rule:nonzero;stroke:none;stroke-width:0.13333"
     d="m 296.04751,400.71089 v -1.25464 H 282.70517 V 294.7282 h 12.08637 l 10e-4,105.98269 h 1.25464 v -1.25464 1.25464 h 1.2533 V 293.4749 c 0,-0.33066 -0.13333,-0.65465 -0.36666,-0.88798 a 1.265835,1.265835 0 0 0 -0.88664,-0.36665 h -14.59531 c -0.33066,0 -0.65331,0.13333 -0.88664,0.36665 a 1.2655684,1.2655684 0 0 0 -0.36799,0.88798 v 107.23599 c 0,0.32932 0.13466,0.65331 0.36799,0.88664 a 1.2613018,1.2613018 0 0 0 0.88664,0.36666 h 14.59564 c 0.33466,0 0.64931,-0.13066 0.88664,-0.36666 a 1.2499687,1.2499687 0 0 0 0.36666,-0.88664 h -1.2533"
     id="path301" /><path
     style="fill:#c3c397;fill-opacity:1;fill-rule:nonzero;stroke:none;stroke-width:0.13333"
     d="M 285.21445,400.71089 C 274.95337,382.21002 212.2416,395.69368 212.2416,395.69368 V 288.45769 c 0,0 58.63587,-18.18621 72.97285,5.01721 v 107.23599"
     id="path303" /><path
     style="fill:#4b2c4e;fill-opacity:1;fill-rule:nonzero;stroke:none;stroke-width:0.13333"
     d="m 285.21445,400.71089 1.09597,-0.60932 c -1.16531,-2.09995 -2.92126,-3.79991 -5.06521,-5.15321 -3.22258,-2.02928 -7.32648,-3.32125 -11.92637,-4.13056 -4.59988,-0.80665 -9.70509,-1.1213 -14.92496,-1.12264 -20.27816,0.005 -42.37094,4.76522 -42.41627,4.77188 l 0.26399,1.22664 h 1.25464 V 288.45769 h -1.25464 l 0.37199,1.19731 0.24,-0.0733 c 2.4146,-0.73198 22.76076,-6.65716 41.53096,-6.64916 6.38117,-0.001 12.57169,0.68531 17.77289,2.4426 5.2092,1.76129 9.3891,4.55189 11.98903,8.75845 l 1.06798,-0.65865 h -1.25464 v 107.23599 h 1.25464 l 1.09597,-0.60932 -1.09597,0.60932 h 1.2533 V 293.4749 c 0,-0.23333 -0.0653,-0.46265 -0.188,-0.65998 -2.98392,-4.83188 -7.7478,-7.93847 -13.321,-9.81576 -5.58119,-1.88128 -12.01436,-2.57327 -18.5742,-2.57593 -20.55015,0.009 -42.45227,6.82383 -42.51494,6.83583 a 1.2563686,1.2563686 0 0 0 -0.88264,1.19863 v 107.23599 c 0,0.38132 0.17066,0.73598 0.46665,0.97597 a 1.2506354,1.2506354 0 0 0 1.05198,0.24933 c 0.001,0 0.33465,-0.072 0.97197,-0.19999 4.45322,-0.90131 23.49941,-4.51856 40.91631,-4.51456 6.82383,-0.003 13.39433,0.55866 18.68087,2.01195 2.64393,0.72532 4.96121,1.67196 6.83049,2.85326 1.87196,1.18264 3.28792,2.58527 4.2119,4.24923 a 1.2523687,1.2523687 0 0 0 1.41063,0.60532 1.253702,1.253702 0 0 0 0.93998,-1.2133 h -1.2533"
     id="path305" /><path
     style="fill:#d9d9b4;fill-opacity:1;fill-rule:nonzero;stroke:none;stroke-width:0.13333"
     d="M 288.74902,400.71089 C 278.48795,382.21002 215.77618,386.9139 215.77618,386.9139 V 279.67658 c 0,0 58.63587,-9.4051 72.97284,13.79832 v 107.23599"
     id="path307" /><path
     style="fill:#4b2c4e;fill-opacity:1;fill-rule:nonzero;stroke:none;stroke-width:0.13333"
     d="m 288.74902,400.71089 1.09731,-0.60932 c -1.89329,-3.39858 -5.26787,-5.95319 -9.45976,-7.93847 -6.30118,-2.97326 -14.54764,-4.70522 -23.06343,-5.72919 -8.51445,-1.01864 -17.29023,-1.3093 -24.58072,-1.3093 -9.88508,0 -17.03824,0.53732 -17.05957,0.53865 l 0.0933,1.25064 h 1.25464 V 279.67658 h -1.25464 l 0.19866,1.23863 c 0.001,0 0.17467,-0.028 0.51732,-0.0787 2.40661,-0.35599 12.91701,-1.79196 25.3087,-1.79062 8.73045,-0.003 18.39688,0.71598 26.77667,2.99192 4.18789,1.13597 8.0518,2.65994 11.31705,4.65055 3.26792,1.99195 5.93185,4.44123 7.7878,7.44515 l 1.06664,-0.65865 h -1.2533 v 107.23599 h 1.2533 l 1.09731,-0.60932 -1.09731,0.60932 h 1.25464 V 293.4749 c 0,-0.23333 -0.0653,-0.46265 -0.188,-0.65998 -2.10261,-3.40392 -5.08787,-6.11852 -8.61578,-8.26913 -10.59307,-6.42917 -26.09402,-7.99313 -39.39902,-8.00913 -14.3783,0.001 -26.18201,1.89595 -26.22334,1.90128 a 1.252502,1.252502 0 0 0 -1.05464,1.23864 V 386.9139 c 0,0.34932 0.14533,0.68131 0.40132,0.91864 a 1.2471688,1.2471688 0 0 0 0.94665,0.33199 c 0.001,0 0.43465,-0.032 1.2493,-0.0827 2.4466,-0.14933 8.27579,-0.44932 15.62227,-0.44799 9.6291,-0.001 21.87412,0.51732 32.47386,2.54394 5.29853,1.01064 10.18241,2.40127 14.09698,4.25322 3.92257,1.85062 6.8305,4.15457 8.33979,6.88783 a 1.2523687,1.2523687 0 0 0 1.41063,0.60532 1.253702,1.253702 0 0 0 0.93998,-1.2133 h -1.25464"
     id="path309" /><path
     style="fill:#feffea;fill-opacity:1;fill-rule:nonzero;stroke:none;stroke-width:0.13333"
     d="m 290.94364,400.71089 c -10.26108,-18.50087 -65.5317,-21.95012 -65.5317,-21.95012 V 271.52478 c 0,0 51.19472,-1.2533 65.5317,21.95012 v 107.23599"
     id="path311" /><path
     style="fill:#4b2c4e;fill-opacity:1;fill-rule:nonzero;stroke:none;stroke-width:0.13333"
     d="m 290.86497,401.96285 1.09597,-0.60931 c -2.80926,-5.02654 -8.41846,-8.78512 -15.15696,-11.77304 -10.12374,-4.46522 -22.93542,-7.14649 -33.24983,-8.74112 -10.31308,-1.58929 -18.11688,-2.07728 -18.14221,-2.07861 l -0.0787,1.25197 h 1.25464 V 272.77675 h -1.25464 l 0.0307,1.2533 c 0,0 0.11199,-0.003 0.33999,-0.005 0.22799,-0.003 0.56665,-0.005 1.00797,-0.005 4.07324,-0.003 16.81025,0.25599 30.05525,3.09859 6.6225,1.41996 13.36767,3.48791 19.20619,6.45983 5.84385,2.97193 10.75573,6.83583 13.82499,11.80771 l 1.06664,-0.65865 h -1.25464 v 107.23598 h 1.25464 l 1.09597,-0.60931 -1.09597,0.60931 h 1.2533 V 294.72687 c 0,-0.23333 -0.0653,-0.46266 -0.18666,-0.65998 -3.40125,-5.49987 -8.71179,-9.61576 -14.82097,-12.72502 -9.17043,-4.66122 -20.19149,-7.09449 -29.71659,-8.39312 -9.52376,-1.2933 -17.54889,-1.43863 -20.68215,-1.43863 -0.90397,0 -1.39996,0.012 -1.40929,0.0133 a 1.2527687,1.2527687 0 0 0 -1.22397,1.2533 v 107.23599 c 0,0.66131 0.51465,1.2093 1.17597,1.25197 10e-4,0 0.20799,0.012 0.61065,0.0413 3.01726,0.21999 16.79558,1.35996 30.94989,4.58922 7.07582,1.61329 14.24364,3.7519 20.17683,6.5265 5.94385,2.76793 10.5984,6.19185 12.77568,10.14908 a 1.2523687,1.2523687 0 0 0 1.41063,0.60532 1.253702,1.253702 0 0 0 0.93998,-1.21331 h -1.2533"
     id="path313" /><path
     style="fill:#feffdc;fill-opacity:1;fill-rule:nonzero;stroke:none;stroke-width:0.13333"
     d="m 289.689,396.84165 c -1.55063,-1.73196 -3.46391,-3.29058 -5.64253,-4.70522 V 287.51372 c 2.22928,1.87195 4.1439,3.97056 5.64253,6.32117 v 103.00676"
     id="path315" /><path
     style="fill:#4b2c4e;fill-opacity:1;fill-rule:nonzero;stroke:none;stroke-width:0.13333"
     d="m 289.689,398.8016 c -1.43996,-1.88395 -3.36392,-3.59724 -5.64253,-5.15454 v -1.51063 c 2.17862,1.41464 4.0919,2.97326 5.64253,4.70522 V 293.83489 c -1.49863,-2.35061 -3.41325,-4.44922 -5.64253,-6.32117 v -1.61596 c 2.38394,1.88528 4.46923,4.0159 6.14252,6.42517 -0.10667,0.16266 -0.21066,0.32666 -0.31199,0.49199 a 1.2519687,1.2519687 0 0 0 -0.188,0.65998 v 105.3267"
     id="path317" /><path
     style="fill:#c3c397;fill-opacity:1;fill-rule:nonzero;stroke:none;stroke-width:0.13333"
     d="m 296.67416,400.71089 c 10.26108,-18.50087 72.97151,-5.01721 72.97151,-5.01721 V 288.45769 c 0,0 -58.6332,-18.18621 -72.97151,5.01721 v 107.23599"
     id="path319" /><path
     style="fill:#4b2c4e;fill-opacity:1;fill-rule:nonzero;stroke:none;stroke-width:0.13333"
     d="m 296.67416,400.71089 1.09597,0.60798 c 0.92264,-1.66396 2.33994,-3.06659 4.2119,-4.24923 2.80126,-1.77328 6.6185,-3.01192 11.01839,-3.78123 4.39855,-0.77199 9.3731,-1.08531 14.49163,-1.08398 9.94909,-10e-4 20.43949,1.17731 28.42729,2.35861 3.9959,0.58932 7.36515,1.17997 9.73576,1.62263 1.18397,0.21999 2.11728,0.40532 2.75593,0.53332 0.63599,0.12799 0.97064,0.19999 0.97198,0.19999 0.37066,0.08 0.75465,-0.0107 1.05064,-0.24933 0.29599,-0.23999 0.46665,-0.59598 0.46665,-0.97597 V 288.45769 c 0,-0.54932 -0.35865,-1.03597 -0.88264,-1.19863 -0.0627,-0.012 -21.96479,-6.8265 -42.51494,-6.83583 -6.55983,0.003 -12.99301,0.69465 -18.57553,2.57593 -5.5732,1.87729 -10.33708,4.98388 -13.31967,9.81576 a 1.2519687,1.2519687 0 0 0 -0.188,0.65998 v 107.23599 c 0,0.57198 0.38666,1.07064 0.93998,1.2133 0.55465,0.144 1.1333,-0.10533 1.41063,-0.60532 l -1.09597,-0.60798 h 1.2533 V 293.4749 h -1.2533 l 1.06664,0.65865 c 2.5986,-4.20656 6.77983,-6.99716 11.98903,-8.75845 5.20121,-1.75729 11.39038,-2.44394 17.77289,-2.4426 10.00642,-10e-4 20.47282,1.67729 28.41929,3.36258 3.97323,0.84131 7.31848,1.68396 9.66643,2.31461 1.17463,0.31466 2.09861,0.57732 2.72793,0.75998 0.31599,0.092 0.55598,0.164 0.71731,0.21199 l 0.24,0.0733 0.37199,-1.19731 h -1.25464 v 107.23599 h 1.25464 l 0.26399,-1.22664 c -0.0453,-0.007 -22.14078,-4.76654 -42.41761,-4.77188 -6.96249,0.003 -13.71299,0.55865 -19.34484,2.10262 -2.81593,0.77331 -5.35854,1.79595 -7.50515,3.15058 -2.14395,1.3533 -3.8999,3.05326 -5.06521,5.15321 l 1.09731,0.60932 h 1.2533 -1.2533"
     id="path321" /><path
     style="fill:#d9d9b4;fill-opacity:1;fill-rule:nonzero;stroke:none;stroke-width:0.13333"
     d="m 293.13825,400.71089 c 10.26374,-18.50087 72.97417,-13.79699 72.97417,-13.79699 V 279.67658 c 0,0 -58.63453,-9.4051 -72.97417,13.79832 v 107.23599"
     id="path323" /><path
     style="fill:#4b2c4e;fill-opacity:1;fill-rule:nonzero;stroke:none;stroke-width:0.13333"
     d="m 293.13825,400.71089 1.0973,0.60798 c 1.50797,-2.73326 4.41589,-5.03721 8.33846,-6.88783 5.87319,-2.78259 13.92365,-4.50788 22.28878,-5.50519 8.36779,-1.00264 17.05957,-1.2933 24.28206,-1.29197 4.89721,0 9.1211,0.132 12.11836,0.26533 1.49863,0.0667 2.68927,0.13333 3.50525,0.18266 0.81464,0.0507 1.24797,0.0827 1.2493,0.0827 0.34799,0.0267 0.69065,-0.0933 0.94797,-0.33199 0.25467,-0.23733 0.39999,-0.56932 0.39999,-0.91864 V 279.67658 c 0,-0.61732 -0.44665,-1.13997 -1.05464,-1.23864 -0.0413,-0.005 -11.84503,-1.89995 -26.22334,-1.90128 -8.87044,0.003 -18.71953,0.71731 -27.43531,3.07992 -4.35723,1.18264 -8.43579,2.7786 -11.96637,4.92921 -3.52658,2.15061 -6.51184,4.86521 -8.61445,8.26913 a 1.2506354,1.2506354 0 0 0 -0.18666,0.65998 v 107.23599 c 0,0.57198 0.38532,1.07064 0.93997,1.2133 0.55332,0.144 1.13197,-0.10533 1.41063,-0.60532 l -1.0973,-0.60798 h 1.25463 V 293.4749 h -1.25463 l 1.06664,0.65865 c 1.85728,-3.00392 4.51988,-5.4532 7.7878,-7.44515 9.79042,-5.99585 24.99804,-7.65847 38.09505,-7.64247 7.07982,0 13.54766,0.46799 18.23954,0.93597 2.34528,0.23467 4.24656,0.46799 5.55853,0.64399 0.65732,0.0867 1.16531,0.15999 1.51063,0.21066 0.34399,0.0507 0.51599,0.0787 0.51599,0.0787 l 0.19999,-1.23863 h -1.25463 v 107.23732 h 1.25463 l 0.0933,-1.25064 c -0.0213,-10e-4 -7.17582,-0.53865 -17.0609,-0.53865 -9.72243,0.001 -22.07945,0.51599 -32.94451,2.58927 -5.4332,1.03864 -10.49707,2.46527 -14.6983,4.44922 -4.19323,1.98528 -7.56648,4.53989 -9.45977,7.93847 l 1.09598,0.60932 h 1.25463 -1.25463"
     id="path325" /><path
     style="fill:#feffea;fill-opacity:1;fill-rule:nonzero;stroke:none;stroke-width:0.13333"
     d="M 290.94364,400.71089 C 301.20605,382.21002 356.478,378.76077 356.478,378.76077 V 271.52478 c 0,0 -51.19606,-1.2533 -65.53436,21.95012 v 107.23599"
     id="path327" /><path
     style="fill:#4b2c4e;fill-opacity:1;fill-rule:nonzero;stroke:none;stroke-width:0.13333"
     d="m 290.94364,400.71089 1.09597,0.60798 c 2.32127,-4.22256 7.46914,-7.83447 13.97965,-10.69573 9.75175,-4.31056 22.4221,-6.98649 32.61918,-8.55579 5.10121,-0.78664 9.58643,-1.3013 12.79435,-1.61862 1.60263,-0.15867 2.88793,-0.268 3.76924,-0.33733 0.87998,-0.0693 1.35197,-0.0987 1.3533,-0.0987 0.66132,-0.0413 1.17597,-0.59065 1.17597,-1.25197 V 271.52478 c 0,-0.68131 -0.54132,-1.2373 -1.22264,-1.2533 -0.009,-10e-4 -0.50665,-0.0133 -1.4093,-0.0133 -4.18122,0.001 -17.05157,0.25466 -30.58456,3.15592 -6.76783,1.4533 -13.70366,3.56658 -19.81818,6.67583 -6.10918,3.10926 -11.41971,7.22515 -14.81962,12.72502 a 1.2519687,1.2519687 0 0 0 -0.188,0.65998 v 107.23599 c 0,0.57198 0.38666,1.07064 0.93998,1.2133 0.55332,0.144 1.1333,-0.10533 1.41063,-0.60532 l -1.09597,-0.60798 h 1.2533 V 293.4749 h -1.2533 l 1.06664,0.65865 c 3.06925,-4.97187 7.98113,-8.83578 13.82365,-11.8077 8.75845,-4.45989 19.55684,-6.8745 28.91794,-8.14247 9.36377,-1.2733 17.29024,-1.41729 20.34749,-1.41596 0.43999,0 0.77865,0.003 1.00665,0.005 0.22799,0.003 0.33999,0.005 0.33999,0.005 l 0.032,-1.2533 h -1.25464 v 107.23665 h 1.25464 l -0.0787,-1.25197 c -0.036,0.003 -13.89432,0.86664 -29.09794,4.06123 -7.60514,1.59996 -15.54494,3.77991 -22.29544,6.7585 -6.73983,2.98792 -12.34902,6.74516 -15.15962,11.77304 l 1.09731,0.60932 h 1.2533 -1.2533"
     id="path329" /><path
     style="fill:#feffdc;fill-opacity:1;fill-rule:nonzero;stroke:none;stroke-width:0.13333"
     d="M 292.19694,396.84165 V 293.83489 c 1.2853,-2.01328 2.87459,-3.8439 4.70521,-5.50253 v 104.43339 c -1.79195,1.2453 -3.37991,2.59727 -4.70521,4.0759"
     id="path331" /><path
     style="fill:#4b2c4e;fill-opacity:1;fill-rule:nonzero;stroke:none;stroke-width:0.13333"
     d="M 290.94364,400.71089 V 293.4749 c 1.57862,-2.5546 3.60391,-4.81188 5.95851,-6.80783 v 1.66529 c -1.83062,1.65863 -3.41991,3.48925 -4.70521,5.50253 v 103.00676 c 1.3253,-1.47863 2.91326,-2.8306 4.70521,-4.0759 v 1.55063 c -2.5826,1.90129 -4.64255,4.02257 -5.95851,6.39451"
     id="path333" /><path
     style="fill:#7d7b7b;fill-opacity:1;fill-rule:nonzero;stroke:none;stroke-width:0.13333"
     d="m 489.08135,408.55202 c 0,0 0.33199,4.19057 -10.5424,4.19057 -10.87573,0 -9.94376,-4.19057 -9.94376,-4.19057 v -14.96496 h 20.48616 v 14.96496"
     id="path335" /><path
     style="fill:#4b2c4e;fill-opacity:1;fill-rule:nonzero;stroke:none;stroke-width:0.13333"
     d="m 489.08135,408.55202 -0.79731,0.0373 -10e-4,0.003 c 0,0.016 -0.001,0.21066 -0.13333,0.49599 -0.19999,0.42399 -0.67998,1.10131 -2.09061,1.72262 -1.4093,0.61599 -3.74924,1.13464 -7.51981,1.13331 -4.55989,0.004 -6.90783,-0.76265 -8.02647,-1.50796 -0.56399,-0.37199 -0.83065,-0.72665 -0.97598,-1.00931 -0.14399,-0.28266 -0.16533,-0.50932 -0.16533,-0.63199 l 0.004,-0.076 v -0.004 l -0.46798,-0.0867 0.46265,0.11067 0.005,-0.024 -0.46798,-0.0867 0.46265,0.11067 0.0227,-0.18667 v -14.16764 h 18.88886 l 0.001,14.16764 10e-4,0.0373 0.79731,-0.0373 h 0.79865 v -14.96496 c 0,-0.21066 -0.0853,-0.41599 -0.23467,-0.56398 a 0.80304659,0.80304659 0 0 0 -0.56398,-0.23466 h -20.48616 c -0.21066,0 -0.41599,0.0853 -0.56532,0.23333 a 0.80824646,0.80824646 0 0 0 -0.23332,0.56531 v 14.96496 h 0.79864 l -0.77598,-0.18666 c -0.0133,0.0507 -0.044,0.20133 -0.0453,0.42932 0,0.32266 0.064,0.81332 0.33866,1.35464 0.40932,0.81598 1.28663,1.69062 2.89859,2.32261 1.61596,0.63598 3.9799,1.06797 7.52782,1.0693 5.21453,-0.004 8.01313,-0.93597 9.58242,-2.06795 0.78132,-0.56398 1.23597,-1.18663 1.47997,-1.71862 0.24399,-0.53332 0.27866,-0.96398 0.27866,-1.16264 l -10e-4,-0.0773 -0.79731,0.0373 h 0.79865 -0.79865"
     id="path337" /><path
     style="fill:#ddef53;fill-opacity:1;fill-rule:nonzero;stroke:none;stroke-width:0.13333"
     d="m 478.8776,323.77548 c -16.80091,0 -28.05796,12.34369 -28.05796,25.87135 0,16.97158 9.66109,21.82745 13.05301,27.61398 3.39191,5.78652 1.39729,15.32761 4.98787,15.32761 h 20.03283 c 3.59191,0 1.5973,-9.54109 4.98921,-15.32761 3.39192,-5.78653 13.05301,-10.6424 13.05301,-27.61398 0,-13.52766 -10.93706,-25.87135 -28.05797,-25.87135"
     id="path339" /><path
     style="fill:#4b2c4e;fill-opacity:1;fill-rule:nonzero;stroke:none;stroke-width:0.13333"
     d="m 478.8776,323.77548 v -0.79865 c -8.59711,-0.003 -15.82493,3.16525 -20.88614,8.08913 -5.06387,4.92121 -7.97047,11.59438 -7.97047,18.58087 -0.007,8.63578 2.48127,14.30098 5.39853,18.45954 2.91593,4.15056 6.19852,6.85316 7.76514,9.55843 1.57463,2.66526 1.94795,6.40117 2.31461,9.52509 0.19066,1.56663 0.37733,2.97326 0.79731,4.09857 0.21333,0.56265 0.48933,1.0693 0.91732,1.46663 0.42265,0.39865 1.0213,0.63865 1.64662,0.63198 h 20.03283 c 0.62532,0.007 1.22397,-0.23333 1.64663,-0.63198 0.74265,-0.70532 1.05331,-1.6973 1.30397,-2.84393 0.35999,-1.72663 0.50398,-3.89191 0.84131,-6.09052 0.33199,-2.19728 0.85731,-4.40655 1.88528,-6.15584 1.5653,-2.70527 4.84788,-5.40787 7.76381,-9.55843 2.91593,-4.15856 5.4052,-9.82376 5.39853,-18.45954 0,-6.97983 -2.82259,-13.65433 -7.8478,-18.57954 -5.02388,-4.92654 -12.25436,-8.09313 -21.00748,-8.09046 v 1.59596 c 8.36779,0.003 15.16496,3.00792 19.89017,7.63448 4.72388,4.63055 7.36782,10.89172 7.36782,17.43956 -0.005,8.33579 -2.34794,13.58366 -5.10921,17.54356 -2.76259,3.9679 -6.00651,6.58517 -7.83313,9.66776 -1.81596,3.11992 -2.14262,7.04782 -2.52261,10.14108 -0.18266,1.54263 -0.38399,2.88259 -0.70665,3.72657 -0.15733,0.42266 -0.34132,0.70665 -0.50398,0.85465 -0.16933,0.14533 -0.29466,0.20266 -0.56666,0.21066 h -20.03283 c -0.27199,-0.008 -0.39732,-0.0653 -0.56532,-0.21066 -0.29332,-0.248 -0.61465,-0.96264 -0.82264,-1.99862 -0.32666,-1.54663 -0.47866,-3.72524 -0.82398,-6.00118 -0.34933,-2.27861 -0.89065,-4.67589 -2.08795,-6.7225 -1.82662,-3.08259 -5.06921,-5.70119 -7.83314,-9.66776 -2.76126,-3.9599 -5.10387,-9.20777 -5.11054,-17.54356 0.008,-13.07834 10.8664,-25.06337 27.26065,-25.07404 v -0.79731"
     id="path341" /><path
     style="fill:#c1d814;fill-opacity:1;fill-rule:nonzero;stroke:none;stroke-width:0.13333"
     d="m 478.40962,391.79111 h -9.5491 c -0.27199,-0.008 -0.39732,-0.0653 -0.56532,-0.21066 -0.29332,-0.248 -0.61465,-0.96264 -0.82264,-1.99862 -0.32666,-1.54663 -0.47866,-3.72524 -0.82398,-6.00118 -0.34933,-2.27861 -0.89065,-4.67589 -2.08795,-6.7225 -1.82662,-3.08259 -5.06921,-5.70119 -7.83314,-9.66776 -2.76126,-3.9599 -5.10387,-9.20777 -5.11054,-17.54356 0.007,-9.47176 5.70253,-18.37154 15.07429,-22.5621 -4.55455,6.3625 -6.92516,14.38764 -6.01051,21.80479 2.07461,16.84357 10.77439,22.58476 14.16764,28.37129 2.79993,4.77854 1.92795,12.11836 3.56125,14.5303"
     id="path343" /><path
     style="fill:#2a182b;fill-opacity:1;fill-rule:nonzero;stroke:none;stroke-width:0.13333"
     d="m 479.83625,392.58842 h -10.97573 c -3.59058,0 -1.59596,-9.54109 -4.98787,-15.32761 -3.39192,-5.78653 -13.05301,-10.6424 -13.05301,-27.61398 0,-10.21974 6.42784,-19.75951 16.81424,-23.81674 -0.32399,0.40932 -0.63865,0.82798 -0.94264,1.25464 -9.37176,4.19056 -15.06762,13.09034 -15.07429,22.5621 0.007,8.33579 2.34928,13.58366 5.11054,17.54356 2.76393,3.96657 6.00652,6.58517 7.83314,9.66776 1.1973,2.04661 1.73862,4.44389 2.08795,6.7225 0.34532,2.27594 0.49732,4.45455 0.82398,6.00118 0.20799,1.03598 0.52932,1.75062 0.82264,1.99862 0.168,0.14533 0.29333,0.20266 0.56532,0.21066 h 9.5491 c 0.34399,0.50799 0.80131,0.79731 1.42663,0.79731"
     id="path345" /><path
     style="fill:#f0f7b0;fill-opacity:1;fill-rule:nonzero;stroke:none;stroke-width:0.13333"
     d="m 497.25048,362.31451 c -4.54522,0 -9.18644,-5.72919 -10.6864,-13.48499 -1.61196,-8.33313 1.01064,-15.84894 5.85852,-16.78625 0.33599,-0.0653 0.67465,-0.096 1.01197,-0.096 4.54389,0 9.18377,5.72919 10.68507,13.485 1.61196,8.33179 -1.01064,15.84894 -5.85852,16.78625 -0.33466,0.0653 -0.67332,0.096 -1.01064,0.096"
     id="path347" /><path
     style="fill:#4b2c4e;fill-opacity:1;fill-rule:nonzero;stroke:none;stroke-width:0.13333"
     d="m 471.85378,392.58842 v -7.98113 c 0,-0.44132 -0.35733,-0.79865 -0.79865,-0.79865 -0.44132,0 -0.79864,0.35733 -0.79864,0.79865 v 7.98113 c 0,0.44133 0.35732,0.79865 0.79864,0.79865 0.44132,0 0.79865,-0.35732 0.79865,-0.79865 m 3.59191,0 v -3.99056 a 0.79811338,0.79811338 0 1 0 -1.59596,0 v 3.99056 a 0.79811338,0.79811338 0 1 0 1.59596,0"
     id="path349" /><path
     style="fill:#a7a5a6;fill-opacity:1;fill-rule:nonzero;stroke:none;stroke-width:0.13333"
     d="m 491.01063,396.77898 h -24.34472 v -4.19056 h 24.34472 v 4.19056"
     id="path351" /><path
     style="fill:#4b2c4e;fill-opacity:1;fill-rule:nonzero;stroke:none;stroke-width:0.13333"
     d="m 491.01063,396.77898 v -0.79731 h -23.54607 v -2.5946 h 22.74743 v 3.39191 h 0.79864 v -0.79731 0.79731 h 0.79732 v -4.19056 c 0,-0.20933 -0.0853,-0.41465 -0.23333,-0.56398 a 0.80184662,0.80184662 0 0 0 -0.56399,-0.23333 h -24.34472 c -0.21066,0 -0.41599,0.084 -0.56399,0.23333 a 0.79838004,0.79838004 0 0 0 -0.23466,0.56398 v 4.19056 c 0,0.21067 0.0853,0.41599 0.23466,0.56532 a 0.80277993,0.80277993 0 0 0 0.56399,0.23333 h 24.34472 c 0.20933,0 0.41466,-0.0853 0.56399,-0.23333 a 0.80824646,0.80824646 0 0 0 0.23333,-0.56532 h -0.79732"
     id="path353" /><path
     style="fill:#a7a5a6;fill-opacity:1;fill-rule:nonzero;stroke:none;stroke-width:0.13333"
     d="m 491.01063,403.53082 h -24.34472 v -4.18923 h 24.34472 v 4.18923"
     id="path355" /><path
     style="fill:#4b2c4e;fill-opacity:1;fill-rule:nonzero;stroke:none;stroke-width:0.13333"
     d="m 491.01063,403.53082 v -0.79732 h -23.54607 v -2.5946 h 22.74609 l 0.001,3.39192 h 0.79864 v -0.79732 0.79732 h 0.79732 v -4.18923 c 0,-0.21066 -0.0853,-0.41599 -0.23333,-0.56399 a 0.80304659,0.80304659 0 0 0 -0.56399,-0.23466 h -24.34472 c -0.21066,0 -0.41599,0.0853 -0.56399,0.23333 a 0.8039799,0.8039799 0 0 0 -0.23466,0.56532 v 4.18923 c 0,0.21066 0.0853,0.41599 0.23466,0.56532 a 0.80277993,0.80277993 0 0 0 0.56399,0.23332 h 24.34472 c 0.20933,0 0.41466,-0.0853 0.56399,-0.23332 a 0.80824646,0.80824646 0 0 0 0.23333,-0.56532 h -0.79732"
     id="path357" /><path
     style="fill:#a7a5a6;fill-opacity:1;fill-rule:nonzero;stroke:none;stroke-width:0.13333"
     d="m 491.01063,409.84932 h -24.34472 v -4.19056 h 24.34472 v 4.19056"
     id="path359" /><path
     style="fill:#4b2c4e;fill-opacity:1;fill-rule:nonzero;stroke:none;stroke-width:0.13333"
     d="m 491.01063,409.84932 v -0.79864 h -23.54607 v -2.59327 h 22.74743 v 3.39191 h 0.79864 v -0.79864 0.79864 h 0.79732 v -4.19056 c 0,-0.21066 -0.0853,-0.41599 -0.23333,-0.56398 a 0.80304659,0.80304659 0 0 0 -0.56399,-0.23466 h -24.34472 c -0.21066,0 -0.41599,0.0853 -0.56399,0.23466 a 0.79838004,0.79838004 0 0 0 -0.23466,0.56398 v 4.19056 c 0,0.21067 0.0853,0.41599 0.23466,0.56532 a 0.80277993,0.80277993 0 0 0 0.56399,0.23333 h 24.34472 c 0.20933,0 0.41466,-0.0853 0.56399,-0.23466 a 0.80277993,0.80277993 0 0 0 0.23333,-0.56399 h -0.79732"
     id="path361" /><path
     style="fill:#feffea;fill-opacity:1;fill-rule:nonzero;stroke:none;stroke-width:0.13333"
     d="M 392.47843,138.9361 H 261.92569 V 59.996741 H 392.47843 V 138.9361"
     id="path363" /><path
     style="fill:#4b2c4e;fill-opacity:1;fill-rule:nonzero;stroke:none;stroke-width:0.13333"
     d="m 392.47843,138.9361 v -1.21464 H 263.139 V 61.210044 H 391.26379 V 138.9361 h 1.21464 v -1.21464 1.21464 h 1.2133 V 59.996741 c 0,-0.319992 -0.12933,-0.633318 -0.35465,-0.858645 a 1.2209028,1.2209028 0 0 0 -0.85865,-0.355991 H 261.92569 c -0.31999,0 -0.63331,0.12933 -0.85864,0.355991 a 1.2186362,1.2186362 0 0 0 -0.35599,0.858645 V 138.9361 c 0,0.31866 0.12933,0.63332 0.35599,0.85864 a 1.2186362,1.2186362 0 0 0 0.85864,0.35599 h 130.55274 c 0.32399,0 0.62932,-0.12666 0.85865,-0.35599 a 1.2061032,1.2061032 0 0 0 0.35465,-0.85864 h -1.2133"
     id="path365" /><path
     style="fill:#ef6a53;fill-opacity:1;fill-rule:nonzero;stroke:none;stroke-width:0.13333"
     d="m 307.79388,128.73902 -8.14113,1.53729 0.136,8.28246 -15.42228,-14.93162 5.95985,-7.30915 17.46756,12.42102"
     id="path367" /><path
     style="fill:#4b2c4e;fill-opacity:1;fill-rule:nonzero;stroke:none;stroke-width:0.13333"
     d="m 307.79388,128.73902 -0.22533,-1.1933 -8.14113,1.53596 c -0.57998,0.10933 -0.99864,0.62398 -0.98931,1.2133 l 0.088,5.35053 -12.51435,-12.11569 4.53589,-5.56386 16.54092,11.7637 0.70531,-0.99064 -0.22533,-1.1933 0.22533,1.1933 0.70398,-0.98931 -17.46889,-12.42236 a 1.2101031,1.2101031 0 0 0 -1.64396,0.22267 l -5.95985,7.31048 c -0.39866,0.48799 -0.35599,1.19997 0.0973,1.63996 l 15.42095,14.93029 a 1.2167696,1.2167696 0 0 0 1.32796,0.24266 1.2179695,1.2179695 0 0 0 0.73065,-1.13464 l -0.11866,-7.25981 7.13449,-1.34664 a 1.2106364,1.2106364 0 0 0 0.9613,-0.93331 c 0.104,-0.47599 -0.0853,-0.96797 -0.48132,-1.2493 l -0.70398,0.98931"
     id="path369" /><path
     style="fill:#ef6a53;fill-opacity:1;fill-rule:nonzero;stroke:none;stroke-width:0.13333"
     d="m 276.93599,141.45203 6.86116,-4.64388 5.73852,5.97585 0.42799,-21.46213 -9.37977,-0.99064 -3.6479,21.1208"
     id="path371" /><path
     style="fill:#4b2c4e;fill-opacity:1;fill-rule:nonzero;stroke:none;stroke-width:0.13333"
     d="m 276.93599,141.45203 0.67998,1.00531 6.01318,-4.07056 5.03054,5.2372 a 1.2126364,1.2126364 0 0 0 1.3173,0.29066 1.2143696,1.2143696 0 0 0 0.77198,-1.10797 l 0.42933,-21.4608 c 0.012,-0.63065 -0.46133,-1.16664 -1.08798,-1.23197 l -9.37976,-0.99064 c -0.63465,-0.068 -1.21597,0.37199 -1.32397,0.99997 l -3.64791,21.12081 c -0.084,0.48132 0.128,0.96264 0.53732,1.22797 a 1.2173029,1.2173029 0 0 0 1.33997,-0.0147 l -0.67998,-1.00531 1.19597,0.20533 3.45458,-19.9995 7.13982,0.75465 -0.34799,17.4129 -3.70658,-3.85857 a 1.214503,1.214503 0 0 0 -1.55596,-0.164 l -6.86116,4.64255 0.68132,1.00664 1.19597,0.20533 -1.19597,-0.20533"
     id="path373" /><path
     style="fill:#ddef53;fill-opacity:1;fill-rule:nonzero;stroke:none;stroke-width:0.13333"
     d="m 298.19945,110.20215 c 3.13059,7.59581 -0.49065,16.29293 -8.08913,19.42218 -7.59714,3.13059 -16.29292,-0.49199 -19.42218,-8.0878 -3.12925,-7.59714 0.49199,-16.29292 8.08913,-19.42218 7.59715,-3.130585 16.29293,0.49066 19.42218,8.0878"
     id="path375" /><path
     style="fill:#4b2c4e;fill-opacity:1;fill-rule:nonzero;stroke:none;stroke-width:0.13333"
     d="m 298.19945,110.20215 -1.12263,0.46265 c 0.70131,1.7053 1.03197,3.46525 1.03197,5.19854 -10e-4,5.37053 -3.18792,10.46641 -8.46112,12.63702 -1.70529,0.70265 -3.46658,1.03331 -5.19987,1.03464 -5.37187,-0.001 -10.46774,-3.18792 -12.63702,-8.46246 -0.70265,-1.70529 -1.03464,-3.46524 -1.03464,-5.19853 10e-4,-5.37053 3.18659,-10.46641 8.46379,-12.63702 1.70529,-0.70265 3.46524,-1.03464 5.19853,-1.03464 5.3692,0.001 10.46374,3.18659 12.63836,8.46245 l 1.12263,-0.46265 1.12264,-0.46266 c -2.5626,-6.21184 -8.55978,-9.967745 -14.88363,-9.966405 -2.04394,0 -4.12256,0.391985 -6.12384,1.217295 -6.21185,2.55994 -9.96909,8.55845 -9.96775,14.88363 0,2.04395 0.39332,4.12256 1.21863,6.12384 2.55727,6.20918 8.55579,9.96642 14.8823,9.96509 2.04261,0.001 4.12256,-0.39066 6.12518,-1.21597 6.20918,-2.56127 9.96642,-8.55845 9.96508,-14.88363 0,-2.04261 -0.39065,-4.12123 -1.21597,-6.12385 l -1.12264,0.46266"
     id="path377" /><path
     style="fill:#d9d9b4;fill-opacity:1;fill-rule:nonzero;stroke:none;stroke-width:0.13333"
     d="M 386.20392,83.476155 H 269.56284 v -16.59692 h 116.64108 v 16.59692 m -16.59692,9.89975 h -83.44591 v -5.44653 H 369.607 v 5.44653 m -17.81289,7.611805 h -47.8228 v -5.446525 h 47.8228 v 5.446525 m -7.28648,23.78074 h -30.00992 v -3.7799 h 30.00992 v 3.7799 m 40.103,0 h -30.00992 v -3.7799 h 30.00992 v 3.7799 M 369.607,115.87001 h -41.2923 v -3.78124 h 41.2923 v 3.78124 m 8.90511,15.00896 h -17.81155 v -3.78124 h 17.81155 v 3.78124 m -38.4577,0 h -17.81156 v -3.78124 h 17.81156 v 3.78124"
     id="path379" /><path
     style="fill:#4b2c4e;fill-opacity:1;fill-rule:nonzero;stroke:none;stroke-width:0.13333"
     d="m 93.038448,362.70917 25.722292,44.1589 c 0.84371,1.44929 2.70247,1.93861 4.15136,1.09464 1.44903,-0.84398 1.93902,-2.7026 1.09531,-4.15057 L 98.285117,359.65325 c -0.843713,-1.4493 -2.702466,-1.93996 -4.151363,-1.09598 -1.449031,0.84398 -1.939552,2.7026 -1.095306,4.1519"
     id="path381" /><path
     style="fill:#f0b6db;fill-opacity:1;fill-rule:nonzero;stroke:none;stroke-width:0.13333"
     d="m 91.813945,354.57471 c -9.85282,5.73985 -22.492104,2.40527 -28.231028,-7.44782 -5.738923,-9.85175 -2.404073,-22.49143 7.448214,-28.23129 9.852954,-5.73852 22.492105,-2.40394 28.231028,7.44781 5.738921,9.85309 2.404211,22.49277 -7.448214,28.2313 z m 12.695015,-31.28722 c -7.42688,-12.75035 -23.784338,-17.06491 -36.534552,-9.63843 -12.750215,7.42782 -17.066774,23.78341 -9.638293,36.53376 6.83063,11.7277 21.213603,16.31159 33.398632,11.19438 l 3.174987,5.45053 6.034246,-3.51591 -3.174451,-5.45053 c 10.461741,-8.07446 13.570461,-22.84609 6.739431,-34.5738"
     id="path383" /><path
     style="fill:#4b2c4e;fill-opacity:1;fill-rule:nonzero;stroke:none;stroke-width:0.13333"
     d="m 91.813945,354.57471 -0.569186,-0.97731 c -3.093256,1.80129 -6.468638,2.6546 -9.804555,2.65593 -6.721165,-0.003 -13.256335,-3.47191 -16.880778,-9.69576 -1.801021,-3.09325 -2.655133,-6.46783 -2.655667,-9.80242 0.0016,-6.7225 3.470714,-13.257 9.696158,-16.88224 3.093123,-1.80129 6.468105,-2.65594 9.803888,-2.65594 6.720099,10e-4 13.255402,3.47058 16.881312,9.69576 1.800493,3.09326 2.654203,6.46784 2.654603,9.80242 -0.001,6.72117 -3.47125,13.257 -9.694961,16.88225 l 0.569186,0.97731 0.568786,0.97731 c 6.942493,-4.04524 10.819999,-11.34372 10.818399,-18.83687 5.3e-4,-3.72124 -0.95571,-7.49581 -2.9618,-10.94106 -4.045228,-6.94249 -11.343045,-10.81973 -18.835525,-10.81839 -3.721773,-10e-4 -7.498212,0.95597 -10.941859,2.96259 -6.944094,4.0439 -10.821197,11.34238 -10.819597,18.83686 -5.33e-4,3.71991 0.956243,7.49715 2.963526,10.94106 4.043099,6.94249 11.340783,10.81973 18.834329,10.8184 3.721907,0 7.498346,-0.95598 10.942527,-2.96259 z m 12.695015,-31.28722 0.97651,-0.56932 c -5.1728,-8.87978 -14.504837,-13.83832 -24.088465,-13.83699 -4.759214,0 -9.587227,1.22264 -13.991783,3.79057 -8.879511,5.17321 -13.838187,14.50497 -13.836587,24.0874 -5.34e-4,4.75855 1.222236,9.58643 3.790438,13.99299 5.170671,8.87711 14.498571,13.83032 24.078598,13.82898 3.609777,0 7.258619,-0.70398 10.734665,-2.16128 l -0.437589,-1.04264 -0.977042,0.56799 3.174454,5.45053 a 1.1179721,1.1179721 0 0 0 0.688516,0.52399 1.1226386,1.1226386 0 0 0 0.857845,-0.116 l 6.03412,-3.51458 a 1.1293051,1.1293051 0 0 0 0.52452,-0.68932 1.1217053,1.1217053 0 0 0 -0.11667,-0.85731 l -3.174452,-5.45053 -0.976509,0.56932 0.69065,0.89598 c 6.974761,-5.3852 10.812661,-13.61966 10.812661,-22.05545 5.4e-4,-4.75588 -1.22183,-9.58109 -3.78737,-13.98365 l -0.97651,0.56932 -0.97704,0.56932 c 2.35928,4.05056 3.47911,8.47445 3.47965,12.84501 -5.4e-4,7.75314 -3.52858,15.32228 -9.93309,20.26483 -0.448522,0.34665 -0.571452,0.97464 -0.286526,1.46396 l 2.605135,4.47322 -4.080032,2.37728 -2.605134,-4.47323 c -0.28546,-0.48932 -0.891711,-0.69331 -1.414632,-0.47465 a 25.429898,25.429898 0 0 1 -9.85962,1.98662 c -8.80818,-10e-4 -17.373032,-4.54656 -22.124513,-12.70635 -2.362875,-4.05457 -3.482713,-8.48112 -3.483247,-12.85435 0.0016,-8.81044 4.55202,-17.37956 12.713816,-22.13278 4.053498,-2.36261 8.479921,-3.48258 12.853278,-3.48391 8.811247,0.003 17.381433,4.55322 22.134915,12.71435 l 0.97704,-0.56932"
     id="path385" /><path
     style="fill:#ef6a53;fill-opacity:1;fill-rule:nonzero;stroke:none;stroke-width:0.13333"
     d="m 123.16783,401.31354 -6.09931,3.55458 -19.255792,-33.05651 6.099852,-3.55325 19.25525,33.05518"
     id="path387" /><path
     style="fill:#4b2c4e;fill-opacity:1;fill-rule:nonzero;stroke:none;stroke-width:0.13333"
     d="m 123.16783,401.31354 -0.56919,-0.97731 -5.1228,2.98526 -18.11675,-31.10189 4.14523,-2.41461 18.68647,32.07787 0.97704,-0.56932 -0.56919,-0.97731 0.56919,0.97731 0.97704,-0.56932 -19.25565,-33.05517 c -0.31412,-0.53866 -1.00677,-0.72132 -1.54583,-0.40799 l -6.099847,3.55324 a 1.1315717,1.1315717 0 0 0 -0.407857,1.54663 l 19.255254,33.0565 a 1.1289051,1.1289051 0 0 0 0.68852,0.52399 1.1222386,1.1222386 0 0 0 0.85784,-0.116 l 6.09985,-3.55457 a 1.1245052,1.1245052 0 0 0 0.52399,-0.68799 c 0.0771,-0.29332 0.0353,-0.59731 -0.11627,-0.85864 l -0.97704,0.56932"
     id="path389" /><path
     style="fill:#ddef53;fill-opacity:1;fill-rule:nonzero;stroke:none;stroke-width:0.13333"
     d="m 433.65873,333.3179 -8.97444,-4.31189 12.27836,-19.73284 3.05859,1.46797 -6.36251,22.57676"
     id="path391" /><path
     style="fill:#4b2c4e;fill-opacity:1;fill-rule:nonzero;stroke:none;stroke-width:0.13333"
     d="m 433.65873,333.3179 0.49732,-1.0373 -7.81847,-3.75591 11.05573,-17.77022 1.25863,0.60398 -6.10118,21.64746 1.10797,0.31199 0.49732,-1.0373 -0.49732,1.0373 1.10664,0.312 6.36251,-22.57677 c 0.15066,-0.53866 -0.10533,-1.10797 -0.60932,-1.3493 l -3.05859,-1.46796 a 1.147438,1.147438 0 0 0 -1.47329,0.42932 l -12.27836,19.73417 a 1.1430381,1.1430381 0 0 0 -0.12933,0.92798 c 0.092,0.31599 0.31065,0.57332 0.60798,0.71598 l 8.97311,4.31056 a 1.1446381,1.1446381 0 0 0 0.97064,0.012 1.1526378,1.1526378 0 0 0 0.63465,-0.73598 l -1.10664,-0.312"
     id="path393" /><path
     style="fill:#066063;fill-opacity:1;fill-rule:nonzero;stroke:none;stroke-width:0.13333"
     d="m 492.25594,297.46013 -237.29407,-113.96248 3.06792,-6.38651 129.83009,33.69383 107.46531,80.26599 -3.06925,6.38917"
     id="path395" /><path
     style="fill:#4b2c4e;fill-opacity:1;fill-rule:nonzero;stroke:none;stroke-width:0.13333"
     d="m 492.25594,297.46013 0.49732,-1.03597 L 256.4965,182.959 l 2.15994,-4.49722 128.69412,33.39916 106.52667,79.56468 -2.6586,5.53719 1.03731,0.49732 0.49732,-1.03597 -0.49732,1.03597 1.03597,0.49866 3.06926,-6.38917 c 0.23732,-0.49466 0.0907,-1.09198 -0.34799,-1.41997 L 388.54786,209.88366 c -0.12266,-0.092 -0.25199,-0.15333 -0.39999,-0.192 L 258.31912,175.99784 c -0.53199,-0.13867 -1.08931,0.11999 -1.3253,0.61465 l -3.06926,6.38784 c -0.27466,0.57199 -0.0333,1.25863 0.53999,1.53463 l 237.29273,113.96248 a 1.1485046,1.1485046 0 0 0 0.87865,0.048 c 0.29066,-0.10133 0.52265,-0.31066 0.65598,-0.58665 l -1.03597,-0.49866"
     id="path397" /><path
     style="fill:#04484a;fill-opacity:1;fill-rule:nonzero;stroke:none;stroke-width:0.13333"
     d="M 360.02991,268.75552 254.96187,183.49765 384.79329,217.19281 492.25594,297.46013 360.02991,268.75552"
     id="path399" /><path
     style="fill:#4b2c4e;fill-opacity:1;fill-rule:nonzero;stroke:none;stroke-width:0.13333"
     d="m 360.02991,268.75552 0.72531,-0.89331 -100.95747,-81.92195 124.48755,32.30852 103.04009,76.96474 -127.05149,-27.58197 -0.24399,1.12397 0.72531,-0.89331 -0.72531,0.89331 -0.244,1.12397 132.22603,28.70462 a 1.1477046,1.1477046 0 0 0 1.2893,-0.64665 c 0.22533,-0.49333 0.076,-1.07464 -0.35732,-1.39864 L 385.48127,216.2715 c -0.12266,-0.092 -0.25199,-0.15333 -0.39999,-0.192 L 255.25119,182.38434 a 1.148638,1.148638 0 0 0 -1.31596,0.59466 1.1507712,1.1507712 0 0 0 0.30132,1.41196 l 105.06804,85.25787 a 1.145038,1.145038 0 0 0 0.48132,0.23066 l 0.244,-1.12397"
     id="path401" /><path
     style="fill:#055558;fill-opacity:1;fill-rule:nonzero;stroke:none;stroke-width:0.13333"
     d="m 414.58721,315.73301 c 0,0 -13.241,-15.32895 -34.61247,-17.18357 -24.25939,-2.10395 -36.23376,4.1239 -36.23376,4.1239 0,0 -0.39865,-15.53961 -16.69691,-29.5446 -16.29693,-14.00365 -37.78706,-17.58622 -37.78706,-17.58622 l 21.3288,-44.41223 c 0,0 32.27919,3.33459 67.41298,20.20883 35.13512,16.87425 57.91722,39.98167 57.91722,39.98167 l -21.3288,44.41222"
     id="path403" /><path
     style="fill:#4b2c4e;fill-opacity:1;fill-rule:nonzero;stroke:none;stroke-width:0.13333"
     d="m 414.58721,315.73301 0.86931,-0.75198 c -0.0467,-0.052 -3.41991,-3.9519 -9.51576,-8.0958 -6.09318,-4.13989 -14.92496,-8.53045 -25.86735,-9.48109 -3.53725,-0.30666 -6.81983,-0.43866 -9.84642,-0.43866 -17.92356,-0.001 -26.878,4.61455 -27.01799,4.68788 l 0.53198,1.01998 1.14797,-0.0293 c -0.001,-0.0973 -0.11466,-4.10923 -2.30927,-9.89841 -2.19328,-5.78786 -6.47851,-13.353 -14.7863,-20.48883 -16.61292,-14.24897 -38.25238,-17.81955 -38.34837,-17.84888 l -0.188,1.13464 1.03597,0.49865 21.33014,-44.41356 -1.03731,-0.49732 -0.11733,1.14397 c 0,0 0.116,0.012 0.35599,0.0387 3.59725,0.41732 33.92049,4.32656 66.67567,20.06216 17.47023,8.39046 31.88587,18.34088 41.92428,26.18868 5.01988,3.92391 8.94511,7.32115 11.61171,9.73443 1.3333,1.20663 2.35194,2.16794 3.03593,2.82526 0.34132,0.32932 0.59998,0.58132 0.77198,0.75198 0.17199,0.16933 0.25332,0.25199 0.25332,0.25199 l 0.81865,-0.80664 -1.03597,-0.49866 -21.33014,44.41356 1.03731,0.49732 0.86931,-0.75198 -0.86931,0.75198 1.03597,0.49866 21.33014,-44.41356 c 0.20933,-0.43866 0.12266,-0.95998 -0.21866,-1.3053 -0.0573,-0.0533 -22.91143,-23.24075 -58.23855,-40.211 -35.32845,-16.96357 -67.7143,-20.30482 -67.79164,-20.31549 a 1.1445047,1.1445047 0 0 0 -1.15463,0.64532 l -21.33014,44.41355 a 1.1481046,1.1481046 0 0 0 0.016,1.02798 1.1533045,1.1533045 0 0 0 0.83198,0.60398 c 0,0 0.0707,0.012 0.22666,0.04 2.32395,0.41733 22.01545,4.38789 37.00041,17.28357 7.99047,6.86916 12.05303,14.07698 14.13431,19.55951 1.03865,2.7426 1.57997,5.05054 1.86129,6.66384 0.14,0.80664 0.216,1.43863 0.256,1.86262 0.02,0.21199 0.032,0.37199 0.0373,0.47598 l 0.005,0.11467 0.001,0.0253 c 0.0107,0.39599 0.224,0.75998 0.56532,0.96131 a 1.1535712,1.1535712 0 0 0 1.11598,0.0307 l 0.012,-0.007 c 0.39332,-0.19733 8.9651,-4.42122 25.94335,-4.42256 2.95992,0 6.17584,0.128 9.64776,0.42933 10.4304,0.90397 18.90486,5.1052 24.77404,9.0931 2.93326,1.99328 5.21187,3.93057 6.75183,5.36253 0.76932,0.71732 1.35464,1.30664 1.74396,1.71463 0.19466,0.20399 0.33999,0.36266 0.43599,0.46799 l 0.10666,0.11866 0.0293,0.0333 a 1.1479713,1.1479713 0 0 0 1.02264,0.38799 c 0.38399,-0.0507 0.71598,-0.29199 0.88397,-0.64131 l -1.03597,-0.49866"
     id="path405" /><path
     style="fill:#034647;fill-opacity:1;fill-rule:nonzero;stroke:none;stroke-width:0.13333"
     d="m 344.39563,298.97076 c -0.33332,-1.64929 -0.88931,-3.77857 -1.81595,-6.22517 -2.19328,-5.78786 -6.47851,-13.353 -14.7863,-20.48883 -14.04365,-12.04636 -31.68187,-16.46092 -36.85774,-17.55556 l 20.33282,-42.33494 c 5.16254,0.63599 34.56047,4.79455 66.23168,20.00883 3.48524,1.6733 6.84783,3.40925 10.07841,5.17721 -14.96362,-1.5213 -30.86989,-11.64504 -46.12818,-11.64504 -3.65057,0 -7.26515,0.57865 -10.81839,1.99461 -12.38636,4.93455 -10.19708,19.89951 -3.14659,28.37529 5.19454,6.24785 11.10105,9.83309 14.22631,17.77156 2.15595,5.47053 5.59586,18.36754 2.68393,24.92204"
     id="path407" /><path
     style="fill:#2a182b;fill-opacity:1;fill-rule:nonzero;stroke:none;stroke-width:0.13333"
     d="m 343.49832,300.51072 c -0.73731,-4.72654 -3.7919,-16.50092 -16.45425,-27.38198 -16.29693,-14.00365 -37.78706,-17.58622 -37.78706,-17.58622 l 21.3288,-44.41223 c 0,0 32.27919,3.33459 67.41298,20.20883 4.2799,2.05462 8.37313,4.2039 12.26636,6.39051 -0.89064,-0.0253 -1.78795,-0.0853 -2.6866,-0.17733 -3.23058,-1.76796 -6.59317,-3.50391 -10.07841,-5.17721 -31.67121,-15.21428 -61.06914,-19.37284 -66.23168,-20.00883 l -20.33282,42.33494 c 5.17587,1.09464 22.81409,5.5092 36.85774,17.55556 8.30779,7.13583 12.59302,14.70097 14.7863,20.48883 0.92664,2.4466 1.48263,4.57588 1.81595,6.22517 -0.25066,0.56399 -0.54798,1.07998 -0.89731,1.53996"
     id="path409" /><path
     style="fill:#4b2c4e;fill-opacity:1;fill-rule:nonzero;stroke:none;stroke-width:0.13333"
     d="m 459.55009,263.49298 -19.53551,40.67899 c -0.27466,0.57332 -0.0347,1.25997 0.53865,1.53462 0.57198,0.276 1.25997,0.0347 1.53463,-0.53865 l 19.53551,-40.67898 c 0.27466,-0.57199 0.0347,-1.25997 -0.53865,-1.53463 -0.57199,-0.27466 -1.25997,-0.0333 -1.53463,0.53865"
     id="path411" /><path
     style="fill:#ddef53;fill-opacity:1;fill-rule:nonzero;stroke:none;stroke-width:0.13333"
     d="m 442.55185,308.94918 c -0.76532,1.59463 -2.68127,2.26928 -4.27723,1.5013 -1.59463,-0.76665 -2.26661,-2.68127 -1.5013,-4.27723 0.76798,-1.59729 2.6826,-2.26928 4.27723,-1.50263 1.59729,0.76798 2.26928,2.68127 1.5013,4.27856"
     id="path413" /><path
     style="fill:#2e1449;fill-opacity:1;fill-rule:nonzero;stroke:none;stroke-width:0.13333"
     d="m 442.55185,308.94918 -1.03598,-0.49865 c -0.35332,0.73731 -1.08931,1.1653 -1.85729,1.16663 -0.29866,0 -0.59865,-0.064 -0.88531,-0.20266 -0.73865,-0.35332 -1.16663,-1.0893 -1.16663,-1.85595 0,-0.29999 0.0627,-0.59732 0.20132,-0.88398 l 0.003,-0.004 c 0.35332,-0.73865 1.08797,-1.1653 1.85329,-1.16797 0.29866,0.001 0.59598,0.064 0.88931,0.20533 0.73731,0.35332 1.16397,1.08664 1.1653,1.85329 0,0.29732 -0.064,0.59865 -0.20399,0.89331 l 0.001,-0.004 1.03598,0.49865 1.03864,0.49465 a 4.3772239,4.3772239 0 0 0 0.42799,-1.88261 c 0.003,-1.61996 -0.91065,-3.17726 -2.46928,-3.92791 -0.60798,-0.29066 -1.2533,-0.43065 -1.88528,-0.42932 a 4.3514912,4.3514912 0 0 0 -3.92657,2.47194 l 0.001,-0.005 a 4.3288251,4.3288251 0 0 0 -0.43332,1.88795 c -10e-4,1.62129 0.91198,3.17859 2.4706,3.92923 0.60399,0.29066 1.24931,0.42933 1.88262,0.42933 1.6213,10e-4 3.17992,-0.91198 3.93057,-2.47061 l 10e-4,-0.003 -1.03864,-0.49465"
     id="path415" /><path
     style="fill:#066063;fill-opacity:1;fill-rule:nonzero;stroke:none;stroke-width:0.13333"
     d="m 340.12374,259.22642 c 5.1972,3.9879 8.37846,10.94906 9.36377,15.91561 0.98397,4.96387 3.40258,19.41551 3.40258,19.41551 0,0 27.16332,-5.11054 40.54832,1.3173 13.38366,6.42784 21.01014,13.15434 21.01014,13.15434 l 15.51294,-32.30053 c 0,0 -16.75291,-18.90352 -38.52703,-30.85789 -8.74645,-4.80122 -48.58679,-20.1755 -57.67323,-10.47841 -9.08644,9.69843 1.16397,19.84617 6.36251,23.83407"
     id="path417" /><path
     style="fill:#a06abb;fill-opacity:1;fill-rule:nonzero;stroke:none;stroke-width:0.13333"
     d="m 490.37732,212.81825 c 5.97851,0 7.51447,-4.62655 3.9199,-9.12244 -3.59591,-4.49722 -23.66341,-34.08315 -23.66341,-34.08315 v -30.20991 h -14.35564 v 29.88326 c 0,0 -21.06747,31.70587 -23.54475,34.4098 -2.47727,2.70393 -0.38265,9.41977 5.59853,9.41977 5.98252,0 46.06418,-0.29733 52.04537,-0.29733"
     id="path421" /><path
     style="fill:#4b2c4e;fill-opacity:1;fill-rule:nonzero;stroke:none;stroke-width:0.13333"
     d="m 490.37732,212.81825 v 0.89731 c 2.05994,0 3.7319,-0.50932 4.92121,-1.4693 1.19063,-0.95464 1.82262,-2.3706 1.81328,-3.87856 -0.004,-1.69596 -0.73331,-3.50125 -2.11461,-5.23321 -0.86398,-1.07864 -2.79993,-3.77857 -5.17987,-7.17715 -3.57591,-5.10254 -8.1878,-11.81704 -11.9037,-17.2529 a 3918.286,3918.286 0 0 1 -4.66255,-6.83717 c -1.16931,-1.71862 -1.87196,-2.75593 -1.87462,-2.75859 l -0.74265,0.50398 h 0.89731 v -30.20991 a 0.89704424,0.89704424 0 0 0 -0.89731,-0.89731 h -14.35564 a 0.89704424,0.89704424 0 0 0 -0.89731,0.89731 v 29.88326 h 0.89731 l -0.74798,-0.49733 c -10e-4,0.001 -0.32933,0.49466 -0.90931,1.36797 -2.03195,3.05059 -7.14916,10.71973 -12.02504,17.91689 -2.4386,3.59857 -4.81721,7.08115 -6.71983,9.80642 -0.95064,1.36263 -1.78129,2.53593 -2.43994,3.43858 -0.65331,0.89598 -1.15197,1.54129 -1.36396,1.77062 -0.87331,0.95598 -1.2573,2.23594 -1.25864,3.54391 0.004,1.71329 0.64799,3.52391 1.91462,4.95054 1.26397,1.42664 3.19325,2.43461 5.60386,2.42794 5.99185,0 46.07352,-0.29599 52.04537,-0.29599 v -1.79462 c -5.99052,0 -46.07219,0.29599 -52.04537,0.29599 -1.91728,-0.005 -3.29858,-0.75465 -4.26389,-1.82662 -0.96131,-1.07331 -1.46263,-2.50127 -1.45997,-3.75724 0,-0.96264 0.288,-1.79195 0.78665,-2.33194 0.37466,-0.41199 0.96398,-1.19597 1.78929,-2.33594 5.71719,-7.9158 21.83679,-32.17653 21.84079,-32.1832 a 0.91117722,0.91117722 0 0 0 0.15066,-0.49598 v -28.98595 h 12.56102 v 29.3126 c 0,0.18 0.0547,0.35466 0.15466,0.50399 10e-4,0 5.01854,7.39848 10.48641,15.35962 2.73326,3.9799 5.58119,8.10113 7.97046,11.51171 2.39328,3.41325 4.31323,6.09851 5.24787,7.26782 1.19597,1.49463 1.72529,2.95059 1.72129,4.1119 -0.008,1.03997 -0.37865,1.85062 -1.1493,2.48393 -0.77198,0.62799 -2.01862,1.06931 -3.79057,1.06931 v 0.89731"
     id="path423" /><path
     style="fill:#3aced1;fill-opacity:1;fill-rule:nonzero;stroke:none;stroke-width:0.13333"
     d="m 479.55359,189.35217 h -31.98187 c -4.03057,5.95185 -7.92247,11.60371 -8.81578,12.57969 -1.99862,2.18261 -0.30933,7.60247 4.51855,7.60247 4.82922,0 37.18174,-0.23866 42.00829,-0.23866 4.82788,0 6.06785,-3.73457 3.16525,-7.36381 -1.2613,-1.5773 -5.03187,-6.97716 -8.89444,-12.57969"
     id="path425" /><path
     style="fill:#4b2c4e;fill-opacity:1;fill-rule:nonzero;stroke:none;stroke-width:0.13333"
     d="m 479.55359,189.35217 v -0.72398 h -31.98187 c -0.23999,0 -0.46532,0.11866 -0.59999,0.31732 -2.01461,2.9746 -3.99323,5.87452 -5.57852,8.1478 -0.79198,1.13731 -1.48663,2.11861 -2.03595,2.87193 -0.54399,0.74931 -0.95998,1.28797 -1.13597,1.47729 -0.70399,0.77199 -1.01331,1.80529 -1.01464,2.86127 0.003,1.3813 0.52265,2.84393 1.54529,3.99456 1.01997,1.15064 2.57594,1.96529 4.52255,1.95995 4.83588,0 37.18841,-0.23866 42.00829,-0.23866 1.66262,0 3.01325,-0.41199 3.97323,-1.1853 0.96131,-0.77065 1.47196,-1.91329 1.46396,-3.13192 -0.003,-1.36797 -0.59198,-2.82526 -1.70662,-4.22256 -0.60532,-0.75598 -1.86662,-2.50394 -3.44525,-4.74655 -1.57996,-2.24261 -3.48791,-4.99321 -5.41853,-7.79314 a 0.7266485,0.7266485 0 0 0 -0.59598,-0.31199 v 0.72398 l -0.59599,0.41066 c 1.93195,2.80259 3.84124,5.55452 5.42653,7.80514 1.58663,2.25327 2.84126,3.99456 3.49858,4.81587 0.96531,1.20664 1.39197,2.38261 1.3893,3.31859 -0.007,0.84131 -0.30666,1.49463 -0.92798,2.00528 -0.62398,0.50666 -1.62929,0.86398 -3.06125,0.86398 -4.83322,0 -37.18574,0.23866 -42.00829,0.23866 -1.54796,-0.005 -2.66126,-0.60932 -3.44124,-1.47596 -0.77598,-0.86531 -1.17997,-2.01862 -1.17731,-3.03059 -10e-4,-0.77732 0.232,-1.44797 0.63465,-1.88262 0.27066,-0.29866 0.67599,-0.83332 1.23864,-1.60396 1.67329,-2.29728 4.61722,-6.59184 7.64247,-11.05973 l -0.59998,-0.40532 v 0.72398 h 31.98187 v -0.72398 l -0.59599,0.41066 0.59599,-0.41066"
     id="path427" /><path
     style="fill:#a06abb;fill-opacity:1;fill-rule:nonzero;stroke:none;stroke-width:0.13333"
     d="m 473.32574,142.99066 h -19.7395 v -6.87849 h 19.7395 v 6.87849"
     id="path429" /><path
     style="fill:#2e1449;fill-opacity:1;fill-rule:nonzero;stroke:none;stroke-width:0.13333"
     d="m 473.32574,142.99066 v -0.89731 h -18.84219 v -5.08387 h 17.94488 v 5.98118 h 0.89731 v -0.89731 0.89731 h 0.89731 v -6.87849 c 0,-0.236 -0.096,-0.46666 -0.26266,-0.63465 a 0.90504404,0.90504404 0 0 0 -0.63465,-0.26266 h -19.7395 a 0.9026441,0.9026441 0 0 0 -0.63465,0.26266 0.89931085,0.89931085 0 0 0 -0.26267,0.63465 v 6.87849 c 0,0.236 0.096,0.46799 0.26267,0.63465 a 0.90504404,0.90504404 0 0 0 0.63465,0.26266 h 19.7395 c 0.24,0 0.46532,-0.0933 0.63465,-0.26266 a 0.89144438,0.89144438 0 0 0 0.26266,-0.63465 h -0.89731"
     id="path431" /><path
     style="fill:#4b2c4e;fill-opacity:1;fill-rule:nonzero;stroke:none;stroke-width:0.13333"
     d="m 453.58624,139.40275 h 9.87042 c 0.49465,0 0.89731,-0.40265 0.89731,-0.89731 0,-0.49599 -0.40266,-0.89864 -0.89731,-0.89864 h -9.87042 c -0.49599,0 -0.89732,0.40265 -0.89732,0.89864 0,0.49466 0.40133,0.89731 0.89732,0.89731 m 14.35564,0 h 2.69193 c 0.49599,0 0.89731,-0.40265 0.89731,-0.89731 0,-0.49599 -0.40132,-0.89864 -0.89731,-0.89864 h -2.69193 c -0.49599,0 -0.89731,0.40265 -0.89731,0.89864 0,0.49466 0.40132,0.89731 0.89731,0.89731 m -10.11975,63.40375 c 0,1.2933 -1.04931,2.34128 -2.34127,2.34128 -1.29331,0 -2.34261,-1.04798 -2.34261,-2.34128 0,-1.29463 1.0493,-2.34261 2.34261,-2.34261 1.29196,0 2.34127,1.04798 2.34127,2.34261 m 14.77963,-0.93198 c 0,1.29331 -1.04931,2.34128 -2.34261,2.34128 -1.2933,0 -2.34127,-1.04797 -2.34127,-2.34128 0,-1.2933 1.04797,-2.3426 2.34127,-2.3426 1.2933,0 2.34261,1.0493 2.34261,2.3426 m -10.70373,-3.7399 c 0,0.72265 -0.58532,1.30796 -1.3093,1.30796 -0.72265,0 -1.30797,-0.58531 -1.30797,-1.30796 0,-0.72265 0.58532,-1.3093 1.30797,-1.3093 0.72398,0 1.3093,0.58665 1.3093,1.3093 m 7.32781,-2.6186 c 0,0.72398 -0.58531,1.3093 -1.3093,1.3093 -0.72264,0 -1.30796,-0.58532 -1.30796,-1.3093 0,-0.72132 0.58532,-1.30797 1.30796,-1.30797 0.72399,0 1.3093,0.58665 1.3093,1.30797 m -6.22384,6.3585 c 0,0.66665 -0.53865,1.20664 -1.2053,1.20664 -0.66665,0 -1.20797,-0.53999 -1.20797,-1.20664 0,-0.66665 0.54132,-1.20663 1.20797,-1.20663 0.66665,0 1.2053,0.53998 1.2053,1.20663 m 11.14906,-3.46658 c 0,0.39866 -0.32133,0.71999 -0.71865,0.71999 -0.39733,0 -0.71999,-0.32133 -0.71999,-0.71999 0,-0.39599 0.32266,-0.71864 0.71999,-0.71864 0.39732,0 0.71865,0.32265 0.71865,0.71864 m -17.95156,-0.71998 c 0,0.39866 -0.32132,0.71998 -0.71864,0.71998 -0.39733,0 -0.71999,-0.32132 -0.71999,-0.71998 0,-0.39599 0.32266,-0.71865 0.71999,-0.71865 0.39732,0 0.71864,0.32266 0.71864,0.71865 m 2.18395,-54.6973 v 14.29565 c 0,0.49598 0.40132,0.89731 0.89731,0.89731 0.49465,0 0.89731,-0.40133 0.89731,-0.89731 v -14.29565 c 0,-0.49465 -0.40266,-0.89731 -0.89731,-0.89731 -0.49599,0 -0.89731,0.40266 -0.89731,0.89731 m 2.61593,0 v 4.92788 c 0,0.49599 0.40266,0.89864 0.89865,0.89864 0.49465,0 0.89731,-0.40265 0.89731,-0.89864 v -4.92788 c 0,-0.49465 -0.40266,-0.89731 -0.89731,-0.89731 -0.49599,0 -0.89865,0.40266 -0.89865,0.89731"
     id="path433" /><path
     style="fill:#f0b6db;fill-opacity:1;fill-rule:nonzero;stroke:none;stroke-width:0.13333"
     d="M 160.14157,142.784 H 148.5552 V 74.540375 h 11.58637 V 142.784"
     id="path435" /><path
     style="fill:#4b2c4e;fill-opacity:1;fill-rule:nonzero;stroke:none;stroke-width:0.13333"
     d="m 160.14157,142.784 v -1.05331 H 149.6085 V 75.592355 h 9.47977 V 142.784 h 1.0533 v -1.05331 1.05331 h 1.05331 V 74.540375 c 0,-0.27866 -0.112,-0.54932 -0.30799,-0.74531 a 1.06504,1.06504 0 0 0 -0.74532,-0.30933 H 148.5552 a 1.0626401,1.0626401 0 0 0 -0.74532,0.30933 1.0590402,1.0590402 0 0 0 -0.30799,0.74531 V 142.784 c 0,0.27599 0.112,0.54799 0.30799,0.74398 a 1.0613068,1.0613068 0 0 0 0.74532,0.308 h 11.58637 c 0.28133,0 0.54532,-0.10934 0.74398,-0.308 a 1.0427739,1.0427739 0 0 0 0.30933,-0.74398 h -1.05331"
     id="path437" /><path
     style="fill:#f0b6db;fill-opacity:1;fill-rule:nonzero;stroke:none;stroke-width:0.13333"
     d="M 178.74911,142.784 H 167.16406 V 92.198605 h 11.58505 V 142.784"
     id="path439" /><path
     style="fill:#4b2c4e;fill-opacity:1;fill-rule:nonzero;stroke:none;stroke-width:0.13333"
     d="m 178.74911,142.784 v -1.05331 H 168.21604 V 93.251905 h 9.47976 V 142.784 h 1.05331 v -1.05331 1.05331 h 1.0533 V 92.198605 c 0,-0.27866 -0.11199,-0.54932 -0.30799,-0.74532 a 1.06504,1.06504 0 0 0 -0.74531,-0.30932 h -11.58505 c -0.27866,0 -0.54932,0.11333 -0.74531,0.30932 a 1.0590402,1.0590402 0 0 0 -0.30799,0.74532 V 142.784 c 0,0.27599 0.11199,0.54799 0.30799,0.74398 a 1.0613068,1.0613068 0 0 0 0.74531,0.308 h 11.58505 c 0.28132,0 0.54532,-0.10934 0.74398,-0.308 a 1.0427739,1.0427739 0 0 0 0.30932,-0.74398 h -1.0533"
     id="path441" /><path
     style="fill:#f0b6db;fill-opacity:1;fill-rule:nonzero;stroke:none;stroke-width:0.13333"
     d="m 196.30467,142.784 h -11.58638 v -27.08732 h 11.58638 V 142.784"
     id="path443" /><path
     style="fill:#4b2c4e;fill-opacity:1;fill-rule:nonzero;stroke:none;stroke-width:0.13333"
     d="m 196.30467,142.784 v -1.05331 h -10.53441 v -24.9807 h 9.47977 l 10e-4,26.03401 h 1.05331 v -1.05331 1.05331 h 1.05197 v -27.08732 c 0,-0.27733 -0.112,-0.54799 -0.30799,-0.74398 a 1.0539737,1.0539737 0 0 0 -0.74398,-0.30933 h -11.58638 a 1.0546403,1.0546403 0 0 0 -0.74531,0.30933 1.0582402,1.0582402 0 0 0 -0.308,0.74398 V 142.784 c 0,0.27599 0.112,0.54799 0.308,0.74398 a 1.0613068,1.0613068 0 0 0 0.74531,0.308 h 11.58638 c 0.27999,0 0.54532,-0.10934 0.74398,-0.308 a 1.0470405,1.0470405 0 0 0 0.30799,-0.74398 h -1.05197"
     id="path445" /><path
     style="fill:#4b2c4e;fill-opacity:1;fill-rule:nonzero;stroke:none;stroke-width:0.13333"
     d="m 202.97383,141.73069 h -62.84496 a 1.052507,1.052507 0 0 0 -1.05304,1.05331 c 0,0.58132 0.47132,1.05198 1.05304,1.05198 h 62.84496 c 0.58266,0 1.05331,-0.47066 1.05331,-1.05198 0,-0.58265 -0.47065,-1.05331 -1.05331,-1.05331"
     id="path447" /><path
     style="fill:#f0b6db;fill-opacity:1;fill-rule:nonzero;stroke:none;stroke-width:0.13333"
     d="m 141.33151,208.78102 c 0,21.69679 -17.58809,39.28568 -39.28502,39.28568 -21.697325,0 -39.285419,-17.58889 -39.285419,-39.28568 0,-21.69679 17.588094,-39.28435 39.285419,-39.28435 21.69693,0 39.28502,17.58756 39.28502,39.28435"
     id="path449" /><path
     style="fill:#4b2c4e;fill-opacity:1;fill-rule:nonzero;stroke:none;stroke-width:0.13333"
     d="m 141.33151,208.78102 h -0.66038 c -5.4e-4,10.66773 -4.3223,20.31949 -11.31279,27.31265 -6.99196,6.99049 -16.64385,11.31172 -27.31185,11.31172 -10.668401,0 -20.320826,-4.32123 -27.312251,-11.31305 -6.990492,-6.99183 -11.312251,-16.64359 -11.312784,-27.31132 5.33e-4,-10.66774 4.322292,-20.32083 11.312784,-27.31132 6.991425,-6.99182 16.64385,-11.31305 27.312251,-11.31305 10.668,0 20.31989,4.32123 27.31185,11.31305 6.99049,6.99049 11.31225,16.64358 11.31279,27.31132 h 1.32076 c -5.3e-4,-22.06212 -17.88395,-39.94434 -39.9454,-39.94567 -22.061849,0.001 -39.945269,17.88355 -39.945802,39.94567 5.33e-4,22.06078 17.883419,39.94567 39.945802,39.94567 22.06145,0 39.94434,-17.88489 39.9454,-39.94567 h -0.66038"
     id="path451" /><path
     style="fill:#ffffff;fill-opacity:1;fill-rule:nonzero;stroke:none;stroke-width:0.13333"
     d="m 136.21497,208.78102 c 0,18.87019 -15.29762,34.16848 -34.16848,34.16848 -18.870329,0 -34.168347,-15.29829 -34.168347,-34.16848 0,-18.8702 15.298018,-34.16715 34.168347,-34.16715 18.87086,0 34.16848,15.29695 34.16848,34.16715"
     id="path453" /><path
     style="fill:#4b2c4e;fill-opacity:1;fill-rule:nonzero;stroke:none;stroke-width:0.13333"
     d="m 136.21497,208.78102 h -0.66038 c -5.4e-4,9.25443 -3.74938,17.62756 -9.81442,23.69407 -6.06599,6.06385 -14.43871,9.81309 -23.69368,9.81442 -9.255503,-0.001 -17.628227,-3.75057 -23.694208,-9.81442 -6.064382,-6.06651 -9.813755,-14.43964 -9.813755,-23.69407 0,-9.25444 3.749373,-17.62756 9.813755,-23.69274 6.065981,-6.06518 14.438705,-9.81442 23.694208,-9.81442 9.25497,0 17.62769,3.74924 23.69368,9.81442 6.06504,6.06518 9.81388,14.4383 9.81442,23.69274 h 1.32076 c -5.3e-4,-19.23552 -15.59334,-34.82846 -34.82886,-34.82846 -19.235387,0 -34.828197,15.59294 -34.82873,34.82846 5.33e-4,19.23552 15.593343,34.82846 34.82873,34.82846 19.23552,0 34.8278,-15.59294 34.82886,-34.82846 h -0.66038"
     id="path455" /><path
     style="fill:#c7edfb;fill-opacity:1;fill-rule:nonzero;stroke:none;stroke-width:0.13333"
     d="m 102.04649,242.28951 c -9.255503,-0.001 -17.628227,-3.75057 -23.694208,-9.81442 -6.064382,-6.06651 -9.813755,-14.43964 -9.813755,-23.69407 0,-9.25444 3.749373,-17.62756 9.813755,-23.69274 0.243327,-0.244 0.490654,-0.48399 0.741181,-0.71865 -3.612976,5.41586 -5.722257,11.9197 -5.722257,18.91953 0,18.87019 15.297484,34.16714 34.168344,34.16714 6.99783,0 13.5002,-2.10795 18.91673,-5.71986 -0.23479,0.24933 -0.47332,0.49599 -0.71611,0.73865 -6.06599,6.06385 -14.43871,9.81309 -23.69368,9.81442"
     id="path457" /><path
     style="fill:#291549;fill-opacity:1;fill-rule:nonzero;stroke:none;stroke-width:0.13333"
     d="m 102.04649,242.9495 c -18.870329,0 -34.168347,-15.29829 -34.168347,-34.16848 0,-10.8344 5.048808,-20.48482 12.916344,-26.74333 a 34.199945,34.199945 0 0 0 -1.701024,2.33194 30.334842,30.334842 0 0 0 -0.741181,0.71865 c -6.064382,6.06518 -9.813755,14.4383 -9.813755,23.69274 0,9.25443 3.749373,17.62756 9.813755,23.69407 6.065981,6.06385 14.438705,9.81309 23.694208,9.81442 9.25497,-0.001 17.62769,-3.75057 23.69368,-9.81442 0.24279,-0.24266 0.48132,-0.48932 0.71611,-0.73865 a 34.274876,34.274876 0 0 0 2.33488,-1.70262 c -6.26078,7.86647 -15.90947,12.91568 -26.74467,12.91568"
     id="path459" /><path
     style="fill:#4b2c4e;fill-opacity:1;fill-rule:nonzero;stroke:none;stroke-width:0.13333"
     d="m 105.15268,208.78102 c 0,1.71596 -1.39063,3.10659 -3.10619,3.10659 -1.71609,0 -3.106723,-1.39063 -3.106723,-3.10659 0,-1.71596 1.390633,-3.10659 3.106723,-3.10659 1.71556,0 3.10619,1.39063 3.10619,3.10659 m -1.4093,-30.37258 c 0,0.93731 -0.75985,1.6973 -1.69689,1.6973 -0.93744,0 -1.69569,-0.75999 -1.69569,-1.6973 0,-0.93597 0.75825,-1.69462 1.69569,-1.69462 0.93704,0 1.69689,0.75865 1.69689,1.69462 m 20.92081,7.75181 a 0.69771589,0.69771589 0 0 1 -0.98797,0 c -0.27133,-0.27199 -0.27133,-0.71465 0,-0.98797 a 0.69878253,0.69878253 0 0 1 0.98691,0 c 0.27346,0.27332 0.27346,0.71598 0.001,0.98797 m -45.124871,45.12421 a 0.69478263,0.69478263 0 0 1 -0.987576,0 0.69544928,0.69544928 0 0 1 0,-0.98531 0.6973159,0.6973159 0 0 1 0.987576,0 0.69518262,0.69518262 0 0 1 0,0.98531 m 44.136901,0.001 c -0.27133,-0.27333 -0.27133,-0.71465 0,-0.98664 a 0.69638259,0.69638259 0 0 1 0.98691,0 0.69584927,0.69584927 0 0 1 0,0.98664 0.69638259,0.69638259 0 0 1 -0.98691,0 M 78.551743,186.16158 a 0.6986492,0.6986492 0 0 1 0,-0.98797 0.69891586,0.69891586 0 0 1 0.987042,0 0.69744923,0.69744923 0 0 1 0,0.98797 0.69891586,0.69891586 0 0 1 -0.987042,0 m 52.714947,10.27841 a 0.70024916,0.70024916 0 0 1 -0.91571,-0.37199 c -0.14999,-0.35332 0.0157,-0.76264 0.37133,-0.91331 a 0.69771589,0.69771589 0 0 1 0.91464,0.37066 c 0.15053,0.35466 -0.0161,0.76398 -0.37026,0.91464 m -58.772529,24.86472 c -0.355724,0.14932 -0.76558,-0.016 -0.915043,-0.37066 a 0.69771589,0.69771589 0 0 1 0.37079,-0.91465 c 0.354658,-0.15066 0.764515,0.016 0.915044,0.37199 0.149996,0.35333 -0.01667,0.76265 -0.370791,0.91332 m 40.903109,16.58358 a 0.6973159,0.6973159 0 0 1 0.37079,-0.91464 0.69771589,0.69771589 0 0 1 0.91518,0.36932 0.69891586,0.69891586 0 0 1 -0.37146,0.91598 c -0.35519,0.15066 -0.76504,-0.0173 -0.91451,-0.37066 M 88.532294,179.11643 a 0.69891586,0.69891586 0 0 1 0.371324,-0.91598 0.6986492,0.6986492 0 0 1 0.913577,0.37066 0.69878253,0.69878253 0 0 1 -0.369857,0.91597 0.70038249,0.70038249 0 0 1 -0.915044,-0.37065 m 25.901486,-0.11333 a 0.6986492,0.6986492 0 0 1 -0.91198,0.37999 0.6973159,0.6973159 0 0 1 -0.37812,-0.91198 c 0.14626,-0.35466 0.55519,-0.52532 0.91144,-0.37866 a 0.69811588,0.69811588 0 0 1 0.37866,0.91065 m -24.360858,58.98385 a 0.69944918,0.69944918 0 0 1 -0.911977,0.38 0.70024916,0.70024916 0 0 1 -0.378124,-0.91332 0.69931585,0.69931585 0 0 1 0.911977,-0.37732 0.69691591,0.69691591 0 0 1 0.378124,0.91064 m 40.760448,-16.93157 a 0.69931585,0.69931585 0 0 1 -0.37919,-0.91198 0.69651592,0.69651592 0 0 1 0.91198,-0.37866 0.69704924,0.69704924 0 0 1 0.37812,0.91065 0.69758256,0.69758256 0 0 1 -0.91091,0.37999 M 71.850977,196.69465 a 0.6973159,0.6973159 0 0 1 -0.379723,-0.91197 c 0.146396,-0.35599 0.555186,-0.52532 0.911443,-0.37866 0.356258,0.14666 0.525454,0.55599 0.379191,0.91198 -0.149063,0.35599 -0.555719,0.52532 -0.910911,0.37865 m 31.892403,42.45894 c 0,0.93598 -0.75985,1.69596 -1.69689,1.69596 -0.93744,0 -1.69569,-0.75998 -1.69569,-1.69596 0,-0.93731 0.75825,-1.69729 1.69569,-1.69729 0.93704,0 1.69689,0.75998 1.69689,1.69729 m 28.67422,-28.67661 c -0.93531,0 -1.69529,-0.75865 -1.69529,-1.69596 0,-0.93598 0.75998,-1.69596 1.69529,-1.69596 0.93798,0 1.69689,0.75998 1.69689,1.69596 0,0.93731 -0.75891,1.69596 -1.69689,1.69596 m -60.742751,0 c -0.935844,0 -1.696225,-0.75865 -1.696225,-1.69596 0,-0.93598 0.760381,-1.69596 1.696225,-1.69596 0.937043,0 1.696357,0.75998 1.696357,1.69596 0,0.93731 -0.759314,1.69596 -1.696357,1.69596"
     id="path461" /><path
     style="fill:#4b2c4e;fill-opacity:1;fill-rule:nonzero;stroke:none;stroke-width:0.13333"
     d="m 103.03713,208.78102 v -17.4969 c 0,-0.54665 -0.44372,-0.98931 -0.99064,-0.98931 -0.54679,0 -0.99051,0.44266 -0.99051,0.98931 v 17.4969 c 0,0.54665 0.44372,0.99064 0.99051,0.99064 0.54692,0 0.99064,-0.44399 0.99064,-0.99064"
     id="path463" /><path
     style="fill:#4b2c4e;fill-opacity:1;fill-rule:nonzero;stroke:none;stroke-width:0.13333"
     d="m 102.04649,209.77166 h 25.25404 a 0.9906419,0.9906419 0 0 0 0.99011,-0.99064 0.9906419,0.9906419 0 0 0 -0.99011,-0.99064 h -25.25404 a 0.99104189,0.99104189 0 0 0 -0.99051,0.99064 c 0,0.54665 0.44372,0.99064 0.99051,0.99064"
     id="path465" /></svg>
